<?xml version="1.0" encoding="UTF-8"?>
<svg id="Layer_1" data-name="Layer 1" xmlns="http://www.w3.org/2000/svg" xmlns:xlink="http://www.w3.org/1999/xlink" viewBox="0 0 1920 1080">
  <defs>
    <style>
      .cls-1 {
        fill: #bac5d9;
        stroke: #fff;
        stroke-miterlimit: 10;
        stroke-width: .25px;
      }
      

      .cls-2 {
        fill: #f0f3f7;
      }

      .cls-2, .cls-3, .cls-4 {
        stroke-width: 0px;
      }

      .cls-3 {
        fill: none;
      }

      .cls-5 {
        opacity: .3;
      }

      .cls-4 {
        fill: #fff;
      }

      .cls-6 {
        clip-path: url(#clippath);
      }
      
    </style>
    <clipPath id="clippath">
      <rect class="cls-3" width="1920" height="1080"/>
    </clipPath>
  </defs>
  <g class="cls-6">
    <path class="cls-2" d="m-620.3,1594.41c-1.57,5.57-3.14,11.13-4.72,16.7H467.53c13.58-13.51,27.38-26.77,41.54-39.62,15.89-14.42,36.83-23.14,54.57-35.72,15.85-11.24,31.2-23.42,45.43-36.64,37.17-34.52,65.54-76.27,94.12-117.75,1.7-2.47,3.27-5.08,4.53-7.8,12.52-27.08,24.8-54.26,37.56-81.23,2.48-5.23,6.82-9.56,10.05-14.47,5.31-8.07,10.09-16.5,15.68-24.37,14.11-19.86,18.76-42.4,24.06-65.86,3.88-17.19,9.82-33.36,8.43-51.46-.5-6.45,2.36-13.16,3.97-21.13-11.61-3.92-23.17-9.86-32.99,4.5-1.2,1.75-3.36,3.42-5.38,3.94-20.88,5.44-41.75,10.94-62.78,15.75-9.27,2.12-18.89,2.67-28.34,4.02-2.96.42-5.91,1.81-8.8,1.64-20.65-1.22-39.63,2.18-56.93,15-4.32,3.21-13.4,2.26-19.45.43-15.06-4.55-28.27-.5-41.14,6.31-32.84,17.36-53.92,13.75-72.94-16.4-8.86-14.05-17.79-25.56-36.61-28.24,3.05-3.56,4.13-5.21,5.57-6.43,6.46-5.47,20.54-5.95,17.69-17.28-2.75-10.94-8.8-23.56-17.46-29.9-12.66-9.28-21.24-21.5-31.94-31.67-19.23-18.28-35.7-40.38-60.51-52.81-8.35-4.18-14.83-10.71-25.28-12.08-5.11-.67-9.08-10.03-14.44-16.51-2.33,3.06-4.69,6.17-7.07,9.27-1.24-.74-3.02-1.19-3.61-2.27-3.81-7.1-8.31-14.03-10.81-21.61-6.27-18.98-13.04-37.98-17-57.49-7.55-37.31-29.86-63.03-60.98-82.1-7.81-4.79-12.5-9.52-13.48-18.8-2.2-20.89-8.43-41.92-7.04-62.49,1.77-26.06-8.3-48.73-15.78-71.57-4.06-12.41-18.99-23.2-31.48-30.5-22.17-12.96-27.43-32.67-26.55-55.04.34-8.79-1.08-14.54-5.86-22.03-11.23-17.6-20.13-36.69-29.89-55.22-5.23-9.93-10.72-19.75-15.35-29.95-5.87-12.94-10.84-26.28-16.5-39.33-4.1-9.46-8.62-18.74-13.09-28.05-1.3-2.7-4.36-5.19-4.36-7.77,0-18.34-13.88-28.66-23.23-41.6-8.81-12.19-17.68-24.22-19.04-40.18-.41-4.82-3.62-9.64-6.31-13.99-4.99-8.05-2.87-14.1,5.54-20.42,2.55,4.5,4.87,8.71,7.29,12.87,5.2,8.93,10.44,17.84,15.67,26.76,1.87,3.19,5.4,6.41,5.35,9.56-.39,23.15,19.23,32.76,31.58,47.09,2.87,3.33,9.81,6.34,13.25,5.07,3.43-1.26,5.7-7.84,6.94-12.5,5.2-19.44,9.74-39.05,14.81-58.53.43-1.65,2.94-2.76,6.51-5.93,4.86,21.53-3.5,39.18-8.02,59.2,21.15,3.41,30.83,19.44,40.64,36.68,14.3,25.14,30.68,49.09,46.22,73.51,2.71,4.26,5.91,8.22,8.5,12.55,7.88,13.2,19.01,24.6,17.29,42.37-1.15,11.89,5.22,21.22,17.24,26.04,6.15,2.46,12.02,5.95,17.48,9.76,6.12,4.27,13.9,8.27,17.02,14.39,13.08,25.73,29.75,50.29,26.72,81.73-2.91,30.14,10.88,54.77,29.29,77.22,1.38,1.68,3.47,3.33,5.51,3.83,35.88,8.69,46.07,39.84,59.25,68.08,9.74,20.87,20.52,39.64,37.41,56.97,21.68,22.25,41.03,49.88,30.13,85.81-1.03,3.4-1.01,7.57-.12,11.04,5.96,23.19,12.43,46.24,18.42,69.42,1.84,7.13,3.63,14.48,3.84,21.77.81,28.03,19.81,43.1,46.48,36,19.25-5.12,37.32-11.99,52.97-25.61,6.54-5.69,17.84-7.49,27.16-8.07,24.41-1.52,47.3-5.64,66.86-22.13,4.41-3.72,12.4-4.63,18.67-4.43,14.28.46,25.98-1.93,35.34-14.61,4.99-6.76,13.68-11.76,21.72-15.09,16.51-6.84,33.67-12.12,50.64-17.85,21.96-7.42,43.99-14.65,66.31-22.06.61-5.95,1.31-10.28,1.44-14.63.42-13.59,7-22.6,19.69-27.22,9.18-3.34,18.41-6.52,27.58-9.9,10.45-3.85,20.62-8.74,31.35-11.5,9.29-2.39,19.23-3.66,28.79-3.24,18.88.83,23.98-.04,27.99-17.51,4.3-18.75,16.41-23.05,32.29-24.61,20.58-2.03,21.22-1.98,25.33-20.49,2.62-11.82,9.1-18.6,20.23-21.51,10.07-2.63,20.26-4.84,30.16-7.19.59-34.52,5.75-58.23,15.49-71.14,3.9,2.58,7.87,5.2,13.19,8.71,3.26-4.96,5.78-9.26,8.75-13.23,9.36-12.52,18.03-25.68,28.56-37.14,11.34-12.34,21.29-29.5,23.82-48.03-19.93-6.09-29.38-23.84-40.78-39.49-6.43-8.83-13.75-13-25.15-15.74-25.03-6.02-51.38-10.25-68.64-34.53-16.57-23.32-17.13-48.57-15.78-74.9.25-4.79.61-9.56,1.03-15.99-4.15,1.77-7.07,2.04-7.87,3.49-14.07,25.52-37.74,42-57.73,61.95-9.14,9.12-18,18.56-26.5,28.27-9.4,10.75-20.56,14.31-34.39,10.85-17.06-4.27-33.57-4.72-50.62,2.54-5.97,2.54-15.89-.81-22.57-4.25-6.9-3.55-12.07-10.47-17.82-15.75,2.51-11.62,6.33-23.1,7.11-34.78.74-10.99-1.72-22.2-3.05-36.28-2.28-1.7-6.89-5.14-11.25-8.39-21.07,15.37-22.23,35.89-19.76,59.05-2.21-3.04-4.6-5.97-6.6-9.14-5.5-8.74-11.11-17.43-16.15-26.43-5.38-9.61-17.49-18.65-3.88-30.75-3.15-9.47-3.79-21.32-10.01-27.89-10.85-11.46-26.06-18.81-31.71-35.1-22.05-11.02-25.95-33.42-34.29-53.39-6.47-15.49-15.21-30.03-23.58-46.22,13.26-4.98,21.23-20.94,38.05-25.12,3.68-.91,5.6-8.9,9.05-14.89,12.48,2.95,25.3,14.05,40.86,5.95,2.02-1.05,8.58,1.67,9.33,3.89,6,17.75,22.56,28.03,28.9,47.19,5.93,17.94,16.31,36.11,25.6,53.71,2.54,4.81,10.29,8.38,16.24,9.58,16.79,3.39,30.88,9.47,40.36,24.97,3.24,5.29,10.33,8.37,15.95,12.02,7.89,5.12,15.92,10.06,24.15,14.63,3.82,2.12,8.23,4.48,12.37,4.48,10.77-.02,20.39,1.68,29.61,8.09,3.56,2.48,11.59,2.89,14.91.51,9.13-6.55,18.63-6.69,28.8-5.84.28.02.78-2.52,1.17-3.86l.42.37c-.17-14.08,10.3-11.18,18.56-11.82,16.92-16,40.08-10.18,45.69,11.72,3.89,15.18,7.51,30.43,11.51,46.71,19.81,3.26,38.7,4.4,56.25,9.85,15.08,4.68,29.97,7.8,45.53,8.7,5.98.35,11.99,1.09,17.94.8,11.18-.53,20.93.57,32.01,5.73,20.49,9.55,43.38,8.63,65.78,4.24,7.24-1.42,14.81-1.11,22.16-2.09,18.76-2.52,37.48-5.33,58.86-8.4,4.34,5.21,12.02,9.55,24.15,6.99,19.67-4.16,39.81-6.49,59.87-8.35,21.71-2.02,28.77,5.15,29.92,28.63,5.97,1.95,12.22,4,18.98,6.21,1.83,6.92,2.69,13.81,5.45,19.84,4.46,9.74,8,17.96,22.52,20.91,12.54,2.54,27.56,9.66,34.45,26.11,9.25,22.05,36.83,30.65,58.88,21.23,3.36-1.44,6.91-2.54,10.47-3.31,1.16-.25,2.66,1.04,4.68,1.93,3.9,18.58-14.02,18.7-23.13,23.95-9.19,5.3-21.51,5.18-33.43,7.64,2,2.78,4.15,6.58,7.07,9.65,14,14.7,28.25,29.17,42.35,43.79,18,18.67,27.65,20.67,51.3,10.43,6.9-2.98,13.85-5.86,20.67-9,14-6.44,22.45-18.72,19.53-33.85-2.66-13.8,3.07-19.31,13.27-22.82,2.35,11.74,8.64,24.02,5.83,33.65-4.06,13.93,2.82,22.89,6.32,33.96,1.67,5.31.63,11.68-.04,17.47-1.12,9.66-5.28,19.56-4.02,28.79,4.35,31.95,10.16,63.72,16.08,95.44,3.3,17.7,7.19,35.36,12.15,52.65,4.72,16.46,9.96,32.99,17.12,48.49,17.11,37.06,39.61,71.63,45.46,113.52,2.8,20,12.17,38.12,25.77,54.2,8.52,10.08,15.15,22.54,19.74,34.99,8.81,23.91,15.3,48.66,23.24,72.91,6.46,19.72,17.56,36.74,33.95,49.52,13.95,10.88,34.31,4.61,40.74-11.55,6.62-16.65,17.06-27.21,31.31-31.67,7.73-15.91,14.74-30.34,22.12-45.52,6.91-.87,13.42-1.68,20.36-2.56.79-1.93,2.37-3.94,2.28-5.88-.56-11.99-.78-24.06-2.49-35.9-2.14-14.85,1.75-28,7.52-41.38,5.58-12.95,9.86-26.51,13.99-40.02,1.24-4.07,1.75-9.93-.28-13.17-7.45-11.89-5.07-24.53-5.31-37.2-.09-4.59-3.69-9.11-7.07-16.81.47-1.88,2.57-8.24,3.53-14.76.75-5.08-.89-10.61.25-15.53,4.91-21.17,14.62-27.42,38.57-24.87,7.24-15.24,17.72-25.84,37.34-25.74,10.98.05,20.49-9.08,20.66-20.38.22-14.61,10-19.36,19.67-24.5,12.71-6.75,25.62-12.8,33.06-26.12,1.05-1.87,2.86-3.7,4.77-4.65,33.98-16.87,50.75-49.71,72.54-77.88,1.36-1.76,3.22-3.14,4.78-4.63,31.05,4.43,51.24-6.47,64.77-35.53,1.68-3.61,1.51-8.49,1.01-12.63-2.75-22.7,1.53-28.71,23.32-35.73,10.29-3.32,19.88-8.84,30.92-13.87,2.84,3.34,7.4,12.94,11.52,12.76,12.95-.57,26.65,3.64,39.11-4.97,15.79-10.91,24.2-11.35,42.25-4.69,4.05-6.34,8.3-13,12.73-19.96,3.02,1.4,5.73,2.67,8.87,4.13v-19c-4.39-8.43-11.33-16.46-7.81-26.83,2.69,3.66,5.27,7.18,7.81,10.63v-155.32c-10.05-.75-19.78.56-28.11,11,5.35-11.19,14.73-16.6,28.11-16.42v-125.22c-2.05-3.52-3.54-5.24-3.73-7.06-.16-1.62,1.45-3.42,2.27-5.14.49.28.97.55,1.46.83v-83.29c-4.83,3.22-9.93,6.62-15.84,10.57-2.31-7.41-3.94-12.62-6.15-19.68h21.99V-218.17H929.88c-9.46,40.25-5.99,79.13,1.98,116.4-4.16,2.35-5.48,3.76-6.71,3.69-26.48-1.45-51.71,6.63-77.38,9.67-31.44,3.72-63.08-5.53-82.1-35.84-4.77-7.6-10.47-9.45-18.44-10.06-29.96-2.3-36.79-7.77-39.73-37.61-1.5-15.22.62-30.78,1.32-46.25H30.6c1.02,5.69,1.91,11.4,2.83,17.1-1.99.09-4.55,1.03-5.86.14-7.17-4.91-6.36-10.51-2.19-17.24H-250.66c1.29,5.15.46,10.72-4.81,17.13-1.95,2.37,1.61,9.28,2.55,13.71-11.32,8.65-11.75-3.72-17.07-7.88-1.75,5.5-3.38,10.66-5.52,17.39,12.44,5.09,25.02,10.24,38.12,15.6,0,7.47-.15,14.14.06,20.79.11,3.66-.47,9.3,1.51,10.59,8.52,5.56,8.24,12.04-.33,20.46h32.64c.87,4.5,1.8,9.3,3.1,16.03,15.09-12.14,27.42,2.4,42.8,2.14-.32,20.59,13.37,27.12,29.24,27.79,24.27,1.03,36.07-13.87,37.46-37.38,27.55-1.67,49.08,6.42,67.01,24.5,22.22,22.41,60.84,22.26,83.72-.21,5.36-5.26,10.68-10.59,16.32-15.54,6.82-5.98,15.15-8.85,22.54-2.56,16.65,14.19,29.64,8.81,41.91-5.77.77-.91,2.69-.85,4.07-1.24,6.05,8.37,4.84,16.98-3.63,25.82-1.18,11.28-2.19,20.52-3.09,29.77-.51,5.21-1.55,10.49-1.11,15.64,1.38,16.21,3.36,32.37,5.06,48.55.23,2.2.93,4.79.09,6.6-6.49,14.08-12.54,28.44-20.19,41.88-12.41,21.78-20.71,44.85-26.35,69.17-4.95,21.35-11.3,41.88-29.92,56.54-17.36,13.66-58.37,18.39-77.55,7.15-6.3-3.7-12.16-8.12-18.3-12.11-1.81-1.18-3.78-2.65-5.8-2.89-33.42-3.86-65.56-.91-93.43,20.21-15.04,11.4-29.56,16.87-47.22,4.92-5.06-3.43-12.83-3.16-19.43-3.97-13.44-1.64-26.74-2.78-37.64-12.7-3.49-3.18-9.34-4.29-14.32-5.22-25.49-4.78-50.72-13.43-76.6-3.71-4.54-8.62-7.98-15.14-10.84-20.57-24.3-5.39-47.38-11.07-70.7-15.46-13.85-2.6-15.04-12.48-13.88-22.9-14.15-5.03-25.85-11.94-38.07-13.01-33.62-2.96-63.6,7.31-86.34,33.15-9.14,10.38-14.52,23.87-7.18,37.5,13.25,24.59-.6,40.77-21.26,57.18-13.28,10.54-29.2,9.05-43.2-3.91-4.39-4.06-8.92-7.72-13.58-11.03v1385.48c1.27-5.66,2.54-11.31,3.82-16.97,1.9.65,3.8,1.3,5.7,1.95v-.03Zm845.96-247.91c1.29.84,2.57,1.68,3.86,2.52-2.69,4.34-5.37,8.68-8.06,13.02l-3.93-3.53,8.13-12.02h0Zm-35.77-245.24c3.95-12.21,14.58-5.17,21.9-8.25,1.11,1.92,2.22,3.85,3.33,5.77-2.54,6.63-5.08,13.26-8.45,22.02-6.8-7.8-21.11-6.16-16.78-19.54Zm-46.81,335.6c5.58,6.67,9.61,9.34,10.16,12.6,1.24,7.31,1.11,14.93.89,22.4-.39,13.38,1.93,25.43,14.45,32.98,9.03,5.45,6.66,11.64,1.92,20-25.62-23.14-36.82-49.31-27.42-87.97h0Zm2354.88-872.13c5.56,3.37,11.13,6.74,16.69,10.1-1.08,1.42-2.17,2.84-3.26,4.25l-15.87-10.34c.81-1.34,1.62-2.67,2.43-4.01h.01Zm-44.79-403.28c3.48-7.29,10.85-3.91,15.21-.11,7.84,6.84,1.5,11.16-4.54,15.98-5.95-3.97-15.36-6.03-10.67-15.87Zm-7.23,481.53c2.85,1.61,5.71,3.22,9.89,5.58-4.34,3.07-7.15,5.05-14.79,10.45,2.59-8.47,3.74-12.25,4.9-16.03h0Zm-144.21-438.87c6.31,1.56,12.62,3.13,21.55,5.34-10.79,11.04-16.74,5.29-23.06,2.82.5-2.72,1-5.44,1.51-8.16Zm-26.53,264.13c5.18.7,10.32,1.66,15.47,2.56-.21,1.26-.42,2.51-.63,3.77-5.42-.61-10.84-1.23-16.62-1.88.92-2.36,1.5-4.49,1.78-4.45h0Zm-4.31,14.35c.66,13.64-7.18,17.21-15.61,19.27,4.49-5.54,8.98-11.09,15.61-19.27Zm-29.57-289.81c1.34,0,2.67.03,4.01.04,0,3.14.1,6.29-.17,9.41-.02.26-2.5.31-3.84.46v-9.91Zm-47.91-16.01c3.31-.33,6.68-1.2,9.89-.78,1.56.2,2.81,2.8,7,7.36-8.06-.8-12.87-1.27-17.68-1.75.26-1.61.52-3.22.78-4.84h.01Zm-45.2,235.34c6.28,1.81,12.57,3.61,18.85,5.42-1.07,1.87-2.14,3.74-3.2,5.62-5.64-2.48-11.28-4.97-16.93-7.45.42-1.19.85-2.39,1.28-3.58h0Zm-275.52,114.1c1.28,1.68,2.56,3.36,3.84,5.03-3.62,2.26-7.25,4.52-10.87,6.77-.82-1.09-1.63-2.18-2.45-3.28,3.16-2.84,6.32-5.69,9.47-8.53h.01Zm-211.27-234.53c-.68-.03-1.37-.07-2.05-.1v-17.03c1.08.3,2.16.59,3.24.89-.39,5.42-.79,10.83-1.18,16.25h0Zm23.07,233.95l1.17,15.75c-1.87.26-3.73.52-5.6.78-.88-5.24-1.75-10.49-2.63-15.73,2.35-.27,4.71-.53,7.06-.8h0Zm-22.68-324.89c8.46,10.01,5.08,18.09,4.66,27.43-11.54-7.67-6.91-15.93-4.66-27.43h0Zm-19.51,338.1c4.47,8.06,8.65,15.6,14.25,25.72-8.8,3.87-16.32,7.18-25.66,11.29-4.6-9.35-8.38-17.04-12.38-25.18,8.28-4.12,15.22-7.57,23.79-11.82h0Zm-235.89-251.21c.35,3.88.7,7.76,1.06,11.63-1.98.1-5.66.43-5.68.25-.55-3.96-.7-7.97-.93-11.98,1.85.03,3.7.06,5.55.09h0Zm-61.59,76.08c-19.82,1.81-26.38-3.79-29.49-26.75,18.21-2.9,20.07-1.13,29.49,26.75Zm-425.89-77.02c-1.45.71-2.9,1.42-4.34,2.14-3.55-5.59-7.09-11.18-11.22-17.68,9.38-1.37,14.57,3.82,15.56,15.55h0ZM829.02,22.27c1.69-3.25,5.52-5.39,8.43-8.01,4.04,4.48,8.08,8.96,14.42,15.99-9.85,1.66-15.34,2.58-23.14,3.89,0-5.15-1.12-9.17.29-11.87h0Zm-205.2,178.02l4.5,1.24c-1.27,4.56-2.55,9.12-3.82,13.68-1.54-.36-3.08-.72-4.62-1.07,1.31-4.62,2.63-9.24,3.94-13.86h0Zm-74.17-376.63c4.21,11.89,6.97,22.91,16.85,31.56,7.27,6.36,3.68,13.78-9.06,23.56-2.04-4.93-4.01-9.36-5.71-13.9-2.54-6.74-4.31-13.84-7.47-20.26-4.3-8.76-.3-14.51,5.38-20.96h.01Zm-80.29,243.55c-16.82-3.19-17.38-4.45-13.04-29.39,10.86,8.52,15.21,18.32,13.04,29.39Zm5.7,35.77c3.13,9.14,4.72,13.78,6.31,18.43-10.3-1.53-12.63-5.91-6.31-18.43Zm3.89-95.04c.64,1.78-.12,4.05-.26,6.11-1.01.06-2.02.11-3.02.17-1.11-3.14-2.21-6.28-3.32-9.43.84-.57,1.68-1.13,2.52-1.7,1.42,1.6,3.42,2.98,4.08,4.85h0Zm-5.64-225.93c-7.62,9-18.47,12.05-11.88,24.17,2.72,5.01-3.01,11.25-10.98,9.2-9.29-2.39-18.5-5.11-27.92-7.73,6.74-13.38,23.17-22.05,50.77-25.64h.01Zm-47.55,252.05c-9.02,6.2-13.44,5.16-14.3-5.55,3.96,1.53,7.91,3.07,14.3,5.55Zm-160.36-251.1c4.02.35,8.05.7,12.07,1.06l.02,3.79c-4.11.27-8.21.54-12.32.81l.23-5.66h0Zm-2.68,81.67c-10.41.37-15.67-4.36-15.78-14.19,5.63,5.07,9.83,8.84,15.78,14.19Zm-7.53,86.98c-12.09,5.42-15.29-.53-15.69-9.71,4.48,2.77,8.96,5.54,15.69,9.71ZM-50.78-143.51c-2.79-4.26-5.14-8.8-7.6-13.27,1.54-.95,3.07-1.91,4.61-2.86,3.2,4.08,6.41,8.16,10.25,13.06-3.68,1.58-7.06,3.37-7.26,3.07ZM-22.66,996.2c-.9-.25-1.8-.5-2.7-.75.91-4.14,1.81-8.27,2.72-12.41,1.67.65,3.34,1.31,5.01,1.96l-5.03,11.2h0ZM14.12,558.38c-.79,15.56,3.93,29.84-9.6,45.22-1.73-11.76-3.04-20.63-4.86-32.94,2.95-2.5,7.76-6.59,14.46-12.28h0Zm16.74,1000.66c-.96,4.84-2.05,10.34-3.48,17.56-5.33,4.83-27.89-.86-37.55-11.59,13.76-2,27.27-3.97,41.03-5.97h0ZM-31.62,613.91c9.52-7.05,14.39,2.38,21.7,3.84-3.41,11.27-9.67,5.01-13.56,3.49-8.11,5.58-15.44,10.63-24.1,16.6-1.48-15.48,8.4-18.32,15.96-23.92h0Zm-20.09,932.08c-15.71,16.03-28.04,28.62-41.85,42.7-.58-21.7,13.95-37.24,41.85-42.7Zm-314.22,50.58l14.6,4.41c-.71,1.29-1.42,2.58-2.13,3.88-4.5-1.63-8.99-3.27-13.49-4.9.34-1.13.68-2.25,1.01-3.38h0Zm-39.88-23.07c-13.59-9.72-22.01-18.38-29.29-28.2,13.77,2.08,23.14,9.65,29.29,28.2Zm-32.01-29.24c-7.95-1.06-16.1-2.15-26.59-3.55,12.66-8.13,19.36-.78,26.59,3.55Zm-62.61-2c.28.7.56,1.39.84,2.09-3.33,1.62-6.51,3.83-10.03,4.68-3.36.8-7.06.17-10.61.17-.14-.95-.27-1.89-.41-2.84,6.74-1.37,13.47-2.73,20.21-4.1h0Zm-50.16,6.91c.68,1.56,1.36,3.12,2.05,4.68-4.64,1.26-9.27,2.52-13.91,3.78l-1.37-3.62c4.41-1.61,8.82-3.22,13.23-4.84h0Z"/>
    <path class="cls-4" d="m-5.35,298.59c1.36,15.96,10.23,27.99,19.04,40.18,9.36,12.95,23.23,23.27,23.23,41.6,0,2.59,3.06,5.07,4.36,7.77,4.46,9.3,8.99,18.58,13.09,28.05,5.65,13.04,10.62,26.39,16.5,39.33,4.63,10.2,10.12,20.03,15.35,29.95,9.77,18.53,18.66,37.62,29.89,55.22,4.78,7.48,6.2,13.24,5.86,22.03-.88,22.38,4.39,42.09,26.55,55.04,12.49,7.3,27.42,18.09,31.48,30.5,7.47,22.85,17.55,45.51,15.78,71.57-1.4,20.57,4.83,41.6,7.04,62.49.98,9.28,5.67,14.02,13.48,18.8,31.12,19.08,53.43,44.8,60.98,82.1,3.95,19.52,10.72,38.52,17,57.49,2.5,7.57,7,14.5,10.81,21.61.58,1.09,2.36,1.53,3.61,2.27,2.38-3.1,4.74-6.21,7.07-9.27,5.35,6.48,9.32,15.83,14.44,16.51,10.45,1.37,16.93,7.89,25.28,12.08,24.81,12.44,41.27,34.53,60.51,52.81,10.69,10.17,19.28,22.39,31.94,31.67,8.66,6.34,14.7,18.96,17.46,29.9,2.85,11.33-11.23,11.81-17.69,17.28-1.44,1.22-2.52,2.87-5.57,6.43,18.83,2.69,27.75,14.19,36.61,28.24,19.02,30.15,40.1,33.76,72.94,16.4,12.87-6.8,26.07-10.86,41.14-6.31,6.05,1.83,15.13,2.78,19.45-.43,17.3-12.82,36.28-16.22,56.93-15,2.89.17,5.84-1.22,8.8-1.64,9.45-1.35,19.07-1.9,28.34-4.02,21.03-4.81,41.9-10.31,62.78-15.75,2.02-.53,4.18-2.19,5.38-3.94,9.82-14.36,21.37-8.41,32.99-4.5-1.6,7.97-4.46,14.68-3.97,21.13,1.39,18.11-4.55,34.28-8.43,51.46-5.3,23.46-9.95,45.99-24.06,65.86-5.59,7.87-10.37,16.3-15.68,24.37-3.23,4.91-7.58,9.23-10.05,14.47-12.75,26.97-25.04,54.15-37.56,81.23-1.26,2.72-2.83,5.33-4.53,7.8-28.59,41.48-56.95,83.23-94.12,117.75-14.23,13.21-29.59,25.4-45.43,36.64-17.74,12.58-38.67,21.3-54.57,35.72-14.16,12.85-27.96,26.12-41.54,39.62h2066.94v-972.05c-3.13-1.46-5.85-2.72-8.87-4.13-4.44,6.96-8.69,13.62-12.73,19.96-18.04-6.65-26.46-6.22-42.25,4.69-12.46,8.61-26.16,4.4-39.11,4.97-4.12.18-8.68-9.42-11.52-12.76-11.04,5.04-20.62,10.56-30.92,13.87-21.8,7.02-26.08,13.03-23.32,35.73.5,4.15.67,9.02-1.01,12.63-13.52,29.06-33.71,39.96-64.77,35.53-1.56,1.49-3.41,2.87-4.78,4.63-21.8,28.18-38.56,61.01-72.54,77.88-1.91.95-3.73,2.77-4.77,4.65-7.45,13.32-20.35,19.37-33.06,26.12-9.68,5.14-19.46,9.89-19.67,24.5-.17,11.3-9.68,20.43-20.66,20.38-19.62-.1-30.1,10.5-37.34,25.74-23.95-2.55-33.66,3.71-38.57,24.87-1.14,4.93.5,10.45-.25,15.53-.97,6.53-3.06,12.88-3.53,14.76,3.38,7.7,6.99,12.23,7.07,16.81.24,12.67-2.14,25.31,5.31,37.2,2.03,3.24,1.53,9.09.28,13.17-4.13,13.51-8.41,27.07-13.99,40.02-5.77,13.39-9.66,26.53-7.52,41.38,1.71,11.85,1.93,23.92,2.49,35.9.09,1.94-1.49,3.96-2.28,5.88-6.94.87-13.46,1.69-20.36,2.56-7.38,15.19-14.39,29.61-22.12,45.52-14.25,4.47-24.69,15.02-31.31,31.67-6.43,16.16-26.79,22.43-40.74,11.55-16.39-12.78-27.49-29.8-33.95-49.52-7.94-24.24-14.43-49-23.24-72.91-4.59-12.46-11.22-24.91-19.74-34.99-13.6-16.08-22.97-34.2-25.77-54.2-5.86-41.89-28.35-76.45-45.46-113.52-7.16-15.51-12.4-32.03-17.12-48.49-4.96-17.29-8.84-34.95-12.15-52.65-5.92-31.72-11.73-63.49-16.08-95.44-1.26-9.23,2.9-19.13,4.02-28.79.67-5.79,1.71-12.16.04-17.47-3.5-11.07-10.38-20.03-6.32-33.96,2.81-9.63-3.48-21.91-5.83-33.65-10.2,3.51-15.92,9.02-13.27,22.82,2.92,15.14-5.53,27.42-19.53,33.85-6.83,3.14-13.77,6.02-20.67,9-23.65,10.24-33.31,8.24-51.3-10.43-14.09-14.62-28.34-29.09-42.35-43.79-2.92-3.07-5.06-6.87-7.07-9.65,11.92-2.46,24.24-2.34,33.43-7.64,9.1-5.25,27.03-5.37,23.13-23.95-2.02-.89-3.52-2.18-4.68-1.93-3.57.77-7.11,1.88-10.47,3.31-22.05,9.42-49.63.83-58.88-21.23-6.89-16.44-21.91-23.57-34.45-26.11-14.52-2.94-18.06-11.16-22.52-20.91-2.76-6.03-3.63-12.92-5.45-19.84-6.76-2.21-13.01-4.26-18.98-6.21-1.15-23.48-8.21-30.65-29.92-28.63-20.06,1.87-40.2,4.2-59.87,8.35-12.13,2.56-19.8-1.78-24.15-6.99-21.38,3.07-40.1,5.88-58.86,8.4-7.35.99-14.92.67-22.16,2.09-22.4,4.39-45.3,5.31-65.78-4.24-11.08-5.16-20.83-6.27-32.01-5.73-5.96.28-11.96-.46-17.94-.8-15.56-.9-30.45-4.02-45.53-8.7-17.55-5.45-36.44-6.59-56.25-9.85-4-16.28-7.62-31.53-11.51-46.71-5.65-22.04-29.06-27.8-46.01-11.43,7.85,6.6,2.87,10.87-3.41,12.51-4.65,1.22-10.13-.77-15.24-1.33-.4,1.34-.9,3.88-1.18,3.85-10.17-.85-19.67-.72-28.8,5.84-3.32,2.38-11.35,1.96-14.91-.51-9.22-6.41-18.85-8.11-29.61-8.09-4.14,0-8.55-2.35-12.37-4.48-8.22-4.57-16.26-9.51-24.15-14.63-5.62-3.65-12.71-6.73-15.95-12.02-9.49-15.51-23.58-21.58-40.36-24.97-5.95-1.2-13.7-4.77-16.24-9.58-9.29-17.6-19.66-35.77-25.6-53.71-6.34-19.16-22.9-29.44-28.9-47.19-.75-2.22-7.31-4.94-9.33-3.89-15.57,8.1-28.38-3.01-40.86-5.95-3.45,5.98-5.37,13.97-9.05,14.89-16.82,4.18-24.8,20.14-38.05,25.12,8.37,16.2,17.11,30.74,23.58,46.22,8.34,19.97,12.24,42.36,34.29,53.39,5.65,16.29,20.86,23.63,31.71,35.1,6.22,6.57,6.86,18.42,10.01,27.89-13.61,12.1-1.51,21.14,3.88,30.75,5.04,9,10.65,17.69,16.15,26.43,2,3.18,4.39,6.1,6.6,9.14-2.48-23.16-1.32-43.68,19.76-59.05,4.36,3.25,8.98,6.69,11.25,8.39,1.33,14.08,3.79,25.29,3.05,36.28-.79,11.68-4.61,23.16-7.11,34.78,5.75,5.28,10.91,12.21,17.82,15.75,6.69,3.44,16.6,6.79,22.57,4.25,17.05-7.26,33.56-6.81,50.62-2.54,13.82,3.46,24.98-.1,34.39-10.85,8.5-9.72,17.36-19.15,26.5-28.27,19.99-19.95,43.66-36.43,57.73-61.95.8-1.45,3.72-1.73,7.87-3.49-.42,6.42-.79,11.2-1.03,15.99-1.35,26.33-.79,51.58,15.78,74.9,17.26,24.28,43.6,28.51,68.64,34.53,11.4,2.74,18.72,6.92,25.15,15.74,11.4,15.65,20.85,33.4,40.78,39.49-2.53,18.53-12.49,35.7-23.82,48.03-10.53,11.46-19.21,24.62-28.56,37.14-2.97,3.97-5.49,8.27-8.75,13.23-5.31-3.51-9.29-6.14-13.19-8.71-9.74,12.91-14.9,36.63-15.49,71.14-9.91,2.34-20.09,4.55-30.16,7.19-11.13,2.91-17.61,9.69-20.23,21.51-4.1,18.51-4.74,18.46-25.33,20.49-15.88,1.56-27.99,5.86-32.29,24.61-4.01,17.47-9.11,18.35-27.99,17.51-9.56-.42-19.5.85-28.79,3.24-10.72,2.76-20.89,7.64-31.35,11.5-9.16,3.38-18.4,6.56-27.58,9.9-12.69,4.62-19.27,13.63-19.69,27.22-.13,4.35-.84,8.68-1.44,14.63-22.32,7.42-44.35,14.65-66.31,22.06-16.96,5.73-34.12,11.01-50.64,17.85-8.04,3.33-16.73,8.33-21.72,15.09-9.36,12.69-21.06,15.07-35.34,14.61-6.26-.2-14.25.71-18.67,4.43-19.56,16.49-42.44,20.62-66.86,22.13-9.32.58-20.63,2.38-27.16,8.07-15.65,13.62-33.72,20.49-52.97,25.61-26.67,7.1-45.67-7.97-46.48-36-.21-7.3-2-14.65-3.84-21.77-5.99-23.18-12.46-46.23-18.42-69.42-.89-3.47-.91-7.64.12-11.04,10.91-35.93-8.45-63.56-30.13-85.81-16.88-17.33-27.67-36.1-37.41-56.97-13.18-28.25-23.37-59.39-59.25-68.08-2.04-.49-4.13-2.15-5.51-3.83-18.41-22.45-32.2-47.07-29.29-77.22,3.03-31.43-13.64-56-26.72-81.73-3.11-6.12-10.89-10.12-17.02-14.39-5.46-3.81-11.33-7.29-17.48-9.76-12.02-4.81-18.4-14.15-17.24-26.04,1.72-17.77-9.41-29.17-17.29-42.37-2.59-4.33-5.78-8.29-8.5-12.55-15.54-24.42-31.92-48.38-46.22-73.51-9.81-17.24-19.49-33.27-40.64-36.68,4.51-20.02,12.88-37.68,8.02-59.2-3.57,3.16-6.08,4.27-6.51,5.93-5.07,19.48-9.61,39.09-14.81,58.53-1.25,4.66-3.51,11.24-6.94,12.5-3.44,1.27-10.38-1.74-13.25-5.07-12.36-14.33-31.97-23.94-31.58-47.09.05-3.16-3.48-6.37-5.35-9.56-5.23-8.92-10.47-17.82-15.67-26.76-2.42-4.16-4.75-8.37-7.29-12.87-8.41,6.32-10.53,12.37-5.54,20.42,2.69,4.35,5.9,9.16,6.31,13.99h-.08Zm2071.01,944.74c3.78-12.82,8.94-25.11.78-42.24,16.95,9.11,27.27,19.72,36.59,31.92,17.67,23.12,26.03,51.09,40.33,75.96,6.28,10.93,1.88,31.45-7.91,41.77-2.05,2.16-4.46,4.02-6.91,5.74-14.52,10.21-31.02,19.26-48.02,12.03-15.59-6.63-16.63-25.37-20.42-40.22-2.56-10-1.4-20.92-3.67-31.04-4.36-19.45,4.06-36.42,9.22-53.92h0Zm-1124.13-164.61c-12.65,14.06-19.27,14.62-34.69,0h34.69Z"/>
    <path class="cls-4" d="m136.83-31.38c-.44-5.14.6-10.43,1.11-15.64.9-9.25,1.92-18.49,3.09-29.77,8.47-8.84,9.68-17.45,3.63-25.82-1.38.39-3.3.33-4.07,1.24-12.27,14.57-25.27,19.96-41.91,5.77-7.38-6.3-15.72-3.42-22.54,2.56-5.64,4.95-10.96,10.28-16.32,15.54-22.88,22.47-61.5,22.61-83.72.21-17.93-18.08-39.46-26.17-67.01-24.5-1.39,23.51-13.19,38.41-37.46,37.38-15.87-.67-29.56-7.21-29.24-27.79-15.38.27-27.71-14.28-42.8-2.14-1.31-6.74-2.23-11.53-3.1-16.03h-32.64c8.56-8.42,8.85-14.9.33-20.46-1.98-1.29-1.39-6.94-1.51-10.59-.21-6.65-.06-13.32-.06-20.79-13.1-5.36-25.68-10.51-38.12-15.6,2.14-6.73,3.77-11.89,5.52-17.39,5.32,4.16,5.76,16.53,17.07,7.88-.93-4.43-4.5-11.33-2.55-13.71,5.27-6.41,6.09-11.98,4.81-17.13h-160.45c2.98,1.63,5.39,4,8.17,6.68,4.15,4.01,10.17,8.23,15.51,8.44,13.79.54,16.37,10.48,20.11,20.02-6.58-1.76-13.21-3.41-18.9-4.83,2.67,11.07,5.17,21.47,7.68,31.88-15.26-11.27-30.93-6.68-45.64-7.08,3.58-1.68,7.13-3.28,9.91-4.53-18.45-19.57-36.58-19.48-55.52-16.63-5.14.78-10.97,1.37-15.66-.28-8.07-2.85-17.19-5.97-22.68-11.92-4.87-5.28-8.78-12.19-8.91-21.73h-112.8V223.95c4.66,3.31,9.2,6.97,13.58,11.03,14,12.96,29.93,14.45,43.2,3.91,20.66-16.4,34.51-32.59,21.26-57.18-7.34-13.62-1.96-27.12,7.18-37.5,22.74-25.84,52.72-36.11,86.34-33.15,12.22,1.07,23.92,7.98,38.07,13.01-1.16,10.42.03,20.3,13.88,22.9,23.32,4.38,46.4,10.07,70.7,15.46,2.86,5.43,6.3,11.96,10.84,20.57,25.88-9.72,51.11-1.08,76.6,3.71,4.98.93,10.83,2.05,14.32,5.22,10.9,9.92,24.19,11.06,37.64,12.7,6.6.8,14.37.54,19.43,3.97,17.66,11.96,32.18,6.48,47.22-4.92,27.87-21.12,60.01-24.07,93.43-20.21,2.02.23,3.99,1.71,5.8,2.89,6.13,3.99,12,8.42,18.3,12.11,19.17,11.25,60.19,6.51,77.55-7.15,18.63-14.66,24.97-35.19,29.92-56.54,5.64-24.32,13.95-47.39,26.35-69.17,7.66-13.44,13.7-27.8,20.19-41.88.83-1.8.14-4.39-.09-6.6-1.69-16.18-3.68-32.34-5.06-48.55l.02.04Zm-570.65-105.9c3.02,8.59,5.79,15.78,8.07,23.12,2.07,6.66,3.6,13.48,3.84,22.38-10.47-7.02-19.27-10.16-25.78,1.84-5.08-7.89-9.4-14.6-14.4-22.35-5.55,3.98-9.57,6.87-14.55,10.45-2.54-4.79-8-10.42-6.83-13.62,7.07-19.23-6.95-28.7-16.93-39.94,8.41-21.87,21.4-27.71,42.52-19.49,10.69,4.16,21.44,8.19,32.11,12.22,4.87,8.77,9.76,17.58,15.96,28.74-7.51-1.05-14.1-1.97-24.02-3.35h0Zm140.02-61.57c6.72,9.09,7.59,14.84,0,24.4v-24.4Zm-73.4,16.08c3.16,5.01,6.32,10.03,10.37,16.46-13.1-.75-12.32-8.21-10.37-16.46h0ZM-287.54-3.14c-15.61,1.32-31.23,2.52-46.85,3.62-2.95.21-7.33,1.07-8.7-.47-14.05-15.69-33.92-12.19-52.53-14.43-.6-13.01,6.71-18.03,12.26-14.09,14.97,10.62,31.84,5.25,47.49,8.76,17.39,3.9,35.12,6.26,52.7,9.28l4.41,5.47c-2.92.63-5.82,1.6-8.77,1.85h-.01Zm73.55-51.1c-2.35-11.84,2.23-17.64,13.7-21.09,3.19,12.63-2.83,17.53-13.7,21.09ZM54.05-1.09c-11.98,5.48-23.88,11.35-36.12,16.42C.16,22.69-10.07,16.23-13.58-3.01,7.51-23.43,33.66-17.56,55.91-24.07c-.61,7.54-1.24,15.27-1.87,22.98h0Z"/>
    <path class="cls-4" d="m1642.3,538.84c4.47,8.06,8.65,15.6,14.25,25.72-8.8,3.87-16.32,7.18-25.66,11.29-4.6-9.35-8.37-17.04-12.38-25.18,8.28-4.12,15.22-7.57,23.79-11.82h0Z"/>
    <path class="cls-4" d="m1315.33,336.96c18.21-2.9,20.07-1.13,29.49,26.75-19.82,1.81-26.38-3.79-29.49-26.75Z"/>
    <path class="cls-4" d="m456.31,37.82c10.86,8.52,15.21,18.32,13.05,29.39-16.82-3.19-17.38-4.45-13.05-29.39Z"/>
    <path class="cls-4" d="m-.34,570.66c2.95-2.5,7.76-6.59,14.46-12.28-.79,15.56,3.93,29.84-9.6,45.22-1.73-11.76-3.04-20.63-4.86-32.94Z"/>
    <path class="cls-4" d="m851.88,30.25c-9.85,1.66-15.34,2.58-23.14,3.89,0-5.15-1.12-9.17.29-11.87,1.69-3.25,5.52-5.39,8.43-8.01,4.04,4.48,8.08,8.96,14.42,15.99h0Z"/>
    <path class="cls-4" d="m914.59,288.82c-3.55-5.59-7.09-11.18-11.22-17.68,9.38-1.37,14.57,3.82,15.56,15.55-1.45.71-2.9,1.42-4.34,2.14h0Z"/>
    <path class="cls-4" d="m1666.47,228.16c-11.54-7.67-6.91-15.93-4.66-27.43,8.46,10.01,5.08,18.09,4.66,27.43Z"/>
    <path class="cls-2" d="m1016.95,407.75c7.85,6.6,2.87,10.87-3.41,12.51-4.65,1.22-10.13-.77-15.24-1.33l.41.36c6.3-3.95,12.6-7.9,18.9-11.85l-.65.31h-.01Z"/>
    <path class="cls-4" d="m1684.49,525.63l1.17,15.75c-1.87.26-3.73.52-5.6.78-.88-5.24-1.75-10.49-2.63-15.73,2.35-.27,4.71-.54,7.06-.8h0Z"/>
    <path class="cls-4" d="m1662.61,275.43c-.39,5.42-.79,10.83-1.18,16.25-.68-.03-1.37-.07-2.05-.1v-17.03c1.08.3,2.16.59,3.24.89h0Z"/>
    <path class="cls-4" d="m481.37,121.42c-10.3-1.53-12.63-5.91-6.31-18.43,3.13,9.14,4.72,13.79,6.31,18.43Z"/>
    <path class="cls-4" d="m411.46,28.51c3.96,1.53,7.91,3.07,14.3,5.55-9.02,6.2-13.44,5.16-14.3-5.55Z"/>
    <path class="cls-4" d="m1876.53,531.25c-3.62,2.26-7.24,4.52-10.87,6.77-.82-1.09-1.63-2.18-2.45-3.28,3.16-2.84,6.32-5.69,9.47-8.53,1.28,1.68,2.56,3.36,3.84,5.03h.01Z"/>
    <path class="cls-4" d="m1017.61,407.44c-6.3,3.95-12.6,7.9-18.9,11.85-.18-14.28,10.6-11.09,18.9-11.85Z"/>
    <path class="cls-4" d="m1406.41,287.63c.35,3.88.7,7.76,1.06,11.63-1.98.1-5.66.43-5.68.25-.55-3.96-.7-7.97-.93-11.98,1.85.03,3.7.06,5.55.09h0Z"/>
    <path class="cls-4" d="m619.88,214.15c1.31-4.62,2.63-9.24,3.94-13.86,1.5.41,3,.83,4.5,1.24-1.27,4.56-2.55,9.12-3.82,13.68-1.54-.36-3.08-.72-4.62-1.07h0Z"/>
    <path class="cls-4" d="m475.66,14.22c-1.11-3.14-2.21-6.29-3.32-9.43.84-.57,1.68-1.13,2.52-1.7,1.42,1.6,3.42,2.98,4.08,4.85.64,1.78-.12,4.05-.26,6.11-1.01.06-2.02.11-3.02.17h0Z"/>
    <path class="cls-2" d="m906.84,1078.72h34.69c-12.65,14.06-19.27,14.62-34.69,0Z"/>
    <path class="cls-2" d="m-13.58-3.01C7.51-23.43,33.66-17.56,55.91-24.07c-.61,7.54-1.24,15.27-1.87,22.98-11.98,5.48-23.88,11.35-36.12,16.42C.16,22.69-10.07,16.23-13.58-3.01Z"/>
    <g id="g50" class="cls-5">
      <path id="path24" class="cls-1" d="m545.23,774.53c-.29-2.71-.67-5.05-.83-5.22-.29-.29-21.06.53-27.66,1.09-2.14.18-3.5-.29-4.08-1.42-.47-.93-.93-1.77-1.01-1.86-.08-.09-1.44.24-3.03.74-2.49.79-3.06.81-4.21.2-1.78-.95-1.51-2.6.53-3.25.85-.27,1.84-.73,2.2-1.01.8-.63.85-2.78.08-3.26-.36-.22-.44-1.17-.24-2.56.25-1.65.13-2.41-.48-3.02-.54-.54-.7-1.26-.48-2.15.21-.86.06-1.65-.43-2.22-.42-.49-.92-1.67-1.1-2.63s-1.14-2.88-2.14-4.27c-1.4-1.95-1.81-3.02-1.81-4.76,0-1.23-.47-4.06-1.03-6.29-1.26-4.91-1.34-9.14-.21-10.86,1.06-1.62.62-2.26-1.86-2.65-1.48-.24-2.58-.92-4.14-2.59-1.17-1.25-2.58-2.27-3.13-2.27-.86,0-1.01-.37-1.01-2.47,0-6.04-2.89-12.22-8.46-18.08-3.56-3.75-3.57-3.9-.61-10.32,2.72-5.89,2.6-6.44-1.93-8.82l-3.75-1.97-.34-4.47c-.19-2.46-.59-4.95-.91-5.53-.75-1.4-.73-1.48.43-1.78.91-.24.97-.67.78-5.32-.22-5.46-.89-6.96-3.08-6.96-1.62,0-2.06-.76-3.06-5.31-.55-2.49-1.35-4.57-2.12-5.49l-1.24-1.47,1.15-1.06c.63-.58,1.59-1.14,2.14-1.24,1.4-.26,1.56-1.22.4-2.33-.55-.52-1.28-1.5-1.63-2.17-.51-.98-.92-1.16-2.1-.93-1.32.26-1.5.13-1.83-1.37-.2-.91-1.03-2.47-1.85-3.46-1.9-2.3-1.87-2.86.2-3.45,1.37-.39,1.71-.77,1.84-2.06.09-.95-.16-1.84-.63-2.23-.43-.36-3.27-.85-6.32-1.1-3.66-.29-5.79-.7-6.29-1.2-.41-.41-1.25-2.23-1.85-4.03-.89-2.66-1.37-3.37-2.55-3.77-1.04-.36-1.75-.31-2.51.16-.58.36-1.12.59-1.2.5-.08-.09-.39-1.89-.7-4s-.87-4.14-1.25-4.53c-.38-.38-2.54-.93-4.8-1.22-2.26-.29-4.48-.64-4.93-.78-1.11-.35-2.95-6.34-3.39-11.02-.36-3.78-1.1-5.27-2.63-5.27-1.92,0-3.72-2.05-4.32-4.95l-.59-2.86-3.19.3c-1.76.16-4.24.41-5.52.54-1.63.17-3.96-.22-7.76-1.31-2.99-.85-5.49-1.55-5.56-1.55s-.13-.23-.13-.52-.47-.99-1.05-1.57-.93-1.25-.78-1.49c.39-.62,2.74-1,3.23-.52.23.22,1.61.57,3.08.76,2.48.33,2.73.26,3.55-1,.49-.74.77-1.66.62-2.04-.18-.46.52-.89,2.14-1.33,3.19-.85,5.77-3.33,5.77-5.55,0-.92.48-2.78,1.07-4.15,1-2.32,1.01-2.53.19-3.13-.48-.35-1.14-.73-1.45-.84-.36-.12-.13-.99.64-2.38.98-1.76,1.21-2.93,1.2-6.11,0-2.34-.25-4.07-.6-4.29-.34-.21-.44-.91-.25-1.68s.02-1.93-.43-2.8c-.42-.81-1.03-2.79-1.36-4.38-.56-2.7-.51-3.04.59-4.77.65-1.02,1.54-1.97,1.96-2.1.43-.13,3.1-.32,5.95-.41l5.17-.17,2.99,5.82,2.99,5.82h6.19c6.12,0,6.19-.01,6.19-1.19,0-.94.55-1.42,2.58-2.28,2.38-1.01,2.76-1.03,5-.36,1.33.4,2.84.73,3.36.73,1.87,0,3.92-2.7,5.31-6.99.74-2.28,1.34-4.31,1.34-4.53s-.57-.39-1.28-.39c-.82,0-1.19-.23-1.02-.66.14-.36-.08-1.11-.48-1.67-.67-.92-.58-1.11,1.02-2.2.97-.66,1.76-1.51,1.76-1.89,0-1.18-1.36-1.92-2.85-1.55-1.27.32-1.35.26-.85-.67.87-1.62,1.72-2.1,4.46-2.51,2.36-.35,2.94-.76,7.17-5.03l4.6-4.65,1.26,1.36c.94,1.02,1.76,1.36,3.27,1.36,3.55,0,4.49-.65,4.91-3.41.2-1.35.72-2.99,1.16-3.66.74-1.14,1.11-1.21,6.14-1.21h5.35l1.4-2.4c1.02-1.75,2.02-2.67,3.68-3.4,1.25-.55,2.65-.87,3.1-.69,1.56.6,7.53-1.75,9.25-3.64.88-.97,1.77-1.77,1.96-1.77s2.68,1.07,5.53,2.37c2.85,1.31,5.5,2.25,5.9,2.1s1.55-2.91,2.57-6.12l1.84-5.85-6.65-9.83c-6.55-9.68-6.68-9.93-8.53-16.3-1.03-3.56-2.24-9.26-2.67-12.67-.71-5.54-.71-7.07-.03-14.17.42-4.38.83-8.02.91-8.11s2.59-.49,5.58-.91l5.43-.76,3.36,2.27c3.3,2.23,4.66,2.74,4.66,1.78,0-.27.47-4.91,1.04-10.31.91-8.56,1.31-10.6,3.13-15.87,1.97-5.7,2.04-6.11,1.22-7.01-.48-.53-1.3-1.09-1.82-1.26-.83-.26-.72-.5.86-1.89,1.78-1.56,1.83-1.57,2.88-.62,1.75,1.58,2.21,2.89,2.09,5.95-.07,2.02.12,3.09.65,3.53.42.35.63.95.48,1.34-.15.39.11,2.02.58,3.63,1.17,4.02,4.02,6.65,8,7.41,5.38,1.02,6.51,1.11,8.3.59,2.25-.65,3.01-.02,2.19,1.79-.91,1.99-.31,2.73,3.78,4.69,2.07,1,4.07,2.18,4.45,2.64s3.43,2.92,6.78,5.47c3.35,2.56,6.1,4.97,6.1,5.37,0,1.27,2.83.81,5.1-.83,1.18-.86,2.15-1.32,2.15-1.03,0,.87,2.89,3.62,3.81,3.62.47,0,.85-.23.85-.5s.87.1,1.94.84c2.68,1.85,11.99,6.39,13.1,6.39.5,0,1-.27,1.11-.59.14-.42.5-.44,1.21-.07.56.29,2.56.66,4.46.83,2.69.24,3.59.14,4.08-.46.54-.65.89-.46,2.36,1.26,1.49,1.75,2.11,2.07,4.56,2.37,2.14.27,2.91.59,3.15,1.34.17.54,1.91,2.62,3.86,4.62,3.35,3.44,5.18,4.4,5.97,3.12.21-.34.69-.32,1.4.06.8.43,1.61.42,3.14-.04,1.13-.34,2.24-.42,2.46-.19.37.4,1.98,4.66,4.02,10.69.79,2.35.79,2.53-.04,3-1.17.65-1.12,2.1.15,4.59.59,1.16,1.03,3.05,1.03,4.41,0,2,.26,2.61,1.61,3.84s1.55,1.71,1.26,3.03c-.21.95-.12,1.7.24,1.92.41.26.37.61-.16,1.21-.41.47-1.03,2.39-1.37,4.27-.62,3.38-.61,3.45,1.04,6.72,1.06,2.09,1.72,4.23,1.8,5.83.08,1.51.54,3.07,1.15,3.9l1.01,1.37-3.16,2.52c-3.01,2.4-3.16,2.64-3.24,4.91-.04,1.31-.24,3.12-.44,4.01-.32,1.43-.16,1.78,1.3,2.85.91.67,2.19,2.27,2.85,3.56,1.13,2.22,1.18,2.79,1.01,10.99-.1,4.76,0,8.65.21,8.65,1.09,0,9.21-2.26,9.79-2.72.83-.67.8-.73,1.82,3.07.47,1.76,1.68,4.55,2.68,6.21,1.33,2.21,1.82,3.61,1.82,5.25,0,1.23.51,3.41,1.13,4.85,1.02,2.37,1.06,2.81.44,4.75-.64,1.99-.79,4.31-.62,9.38.04,1.14.08,2.77.09,3.62s.05,3.18.08,5.17-.24,4.67-.6,5.95c-.38,1.33-.71,5.88-.78,10.61-.18,12.31-1.1,26.42-1.99,30.52-1.03,4.76-1.52,7.47-1.66,9.05-.17,1.96-1.68,5.64-3.32,8.08-1.38,2.04-2.81,5.54-5.26,12.88l-1.04,3.1,3.27,3c2.36,2.16,3.56,2.92,4.31,2.73,1.58-.4,10.09.32,9.78.83-.15.25-1.37,1.01-2.7,1.68-1.33.68-2.98,1.83-3.66,2.56s-1.97,1.57-2.87,1.87c-1.3.43-1.98,1.24-3.35,4.02-.95,1.92-2.25,5.42-2.88,7.78-1.1,4.09-1.11,4.31-.23,4.79.51.27,1.33.5,1.81.5.82,0,.86.62.53,7.56l-.36,7.56,6.07,7.58c3.34,4.17,6.27,7.85,6.51,8.18.27.37-4.91,12.43-13.78,32.08l-14.22,31.48-6.63.33c-3.65.18-25.14.62-47.76.97l-41.13.65-4.37,1.74c-2.4.96-4.51,1.74-4.69,1.74s-.56-2.21-.85-4.92h0v.03Z"/>
      <path id="path26" class="cls-1" d="m377.11,808.72c-1.91-1.34-2.9-4.89-2.35-8.38.27-1.67.33-3.1.15-3.18-3.27-1.34-4.19-3.24-3.26-6.72.84-3.15.35-4.61-1.79-5.32-2.07-.68-2.79-1.81-2.79-4.33,0-2.14-1.77-5.8-3.16-6.55-.81-.43-.98-1.12-.98-4.09,0-3.24-.13-3.67-1.36-4.64-.75-.59-1.74-1.08-2.2-1.08-1.93-.03-3.03-1.7-3.31-5.01-.18-2.13-.65-3.74-1.39-4.79-.98-1.38-1.43-1.57-3.58-1.57-1.9,0-2.72-.27-3.59-1.2-.62-.66-1.12-1.56-1.12-2.01s-.34-1.09-.75-1.43-.82-1.23-.91-1.97c-.18-1.54-4.51-4.92-9.07-7.09-1.8-.86-3.16-1.98-4.08-3.37-.97-1.47-1.74-2.08-2.62-2.08s-1.56-.54-2.31-1.81c-1.21-2.05-1.71-2.22-7.29-2.51-3.53-.19-4.32-.42-6.77-2.05-2.3-1.53-4.96-4.11-7.02-6.83-.22-.29-.31-.81-.19-1.16s-.04-.64-.35-.64-.56-.3-.56-.67-1.04-1.74-2.3-3.04c-1.27-1.3-2.45-3.04-2.63-3.85-.44-2.01-1.4-3.98-2.18-4.48-.36-.23-.65-.75-.65-1.17s-.76-1.22-1.68-1.78c-.92-.56-1.8-1.53-1.96-2.16s-.94-1.51-1.76-1.96c-1.66-.92-2.15-1.64-2.62-3.87-.18-.84-1.14-2.29-2.13-3.23-1.38-1.3-1.9-2.3-2.21-4.23-.22-1.39-.9-3.17-1.52-3.96-1.46-1.85-1.42-2.14.43-3.69,1.62-1.36,1.98-3.07,1.03-4.84-.29-.53-.32-1.09-.07-1.25.73-.45-.61-3.93-1.52-3.93-.62,0-.95-.87-1.35-3.49-.47-3.11-.42-3.63.43-4.73.53-.68.96-1.55.96-1.94,0-1.05-1.39-.85-2.21.32-.69.98-.75.95-1.58-.79-.48-1-.87-2.16-.87-2.57s-.22-.76-.5-.76c-1,0-2.61-2.3-2.61-3.73,0-1.06.33-1.59,1.21-1.93,1.96-.75,3.95-7.79,2.75-9.74-.21-.33.1-1.52.67-2.64s1.19-2.99,1.38-4.16c.21-1.28.62-2.12,1.05-2.12s.71-.58.71-1.55c0-1.27-.22-1.55-1.17-1.55s-1.17-.28-1.16-1.68c0-.92.21-1.83.47-2.02.25-.18.28-.77.05-1.29-.23-.53-.5-1.42-.6-1.99s-.66-1.67-1.22-2.45-1.32-2.52-1.68-3.88-1.29-3.15-2.08-3.99c-1.22-1.29-1.31-1.59-.64-1.97,1.1-.62,1.01-1.26-.6-4.34-1.14-2.18-1.83-2.85-3.82-3.69l-2.43-1.03.26-2.27c.33-2.91-.61-6.47-1.79-6.78-.83-.22-1.75-1.66-2.72-4.28-.21-.57-.65-1.69-.97-2.48-.85-2.12-.72-2.84.58-3.24.64-.2,1.75-.77,2.46-1.26s2.05-1,2.97-1.14c1.53-.22,1.68-.12,1.68,1.13,0,1.53,1.9,3.62,3.3,3.62.5,0,1.49.7,2.21,1.55,1.35,1.61,2.53,2,2.88.95.11-.33.69.23,1.29,1.25.82,1.39,1.02,2.38.81,3.96-.23,1.75-.13,2.11.58,2.11.48,0,1.26.68,1.74,1.52.59,1.03,1.43,1.62,2.6,1.84,1.48.28,1.64.44,1.07,1.12-.55.66-.46.95.57,1.72,1.78,1.34,6.28,1.73,7.16.61.62-.78.77-.73,1.72.56,1.15,1.57,1.99,1.84,1.99.65,0-.52.52-.78,1.55-.78,1.68,0,1.9-.58,1.05-2.81-.44-1.16-.37-1.33.56-1.33.59,0,1.49.52,2,1.16.88,1.09,1.08,1.12,3.32.52,1.53-.41,2.71-.47,3.29-.16.49.26,1.36.63,1.92.8.8.25.87.42.32.76-.58.36-.5.85.4,2.72,1.36,2.82,1.37,2.56-.19,4.86-.71,1.05-1.29,2.43-1.29,3.06,0,1,.26,1.15,1.94,1.11,1.07-.02,2.73.35,3.7.84.97.49,2.66.89,3.75.89,1.65,0,1.99.18,1.99,1.03,0,.68.34,1.03,1,1.03,1.27,0,1.82.87,1.68,2.7-.06.79.09,1.44.34,1.44s.34.6.2,1.33c-.37,1.95.86,3.97,2.21,3.63.6-.15,2.36-.07,3.91.19,2.51.41,2.9.35,3.62-.57.73-.94,2.28-1.99,6.32-4.31,1.4-.8,1.48-.78,2.94.82,1.33,1.45,1.74,1.61,3.54,1.37,3.01-.4,5.63-1.83,6.27-3.4.31-.76.92-3.13,1.36-5.27,1.16-5.6,1.27-5.67,9.02-5.06,1.6.13,1.91-.07,2.93-1.88.63-1.11,1.02-2.35.86-2.74-.15-.4.24-1.27.87-1.95,1.01-1.08,1.48-1.19,3.89-.94,2.42.25,2.81.16,3.33-.82.43-.81,1.08-1.1,2.43-1.1,2.48,0,5.36-1.41,5.36-2.63,0-.53-.84-1.8-1.86-2.82-1.81-1.81-1.91-2.27-.99-4.51.26-.63.13-.91-.4-.91-.86,0-1.64-2.31-1.08-3.2.19-.31.39-2.5.45-4.87.08-3.74.28-4.56,1.49-6.32,1.44-2.08,3.21-3.2,5.04-3.2.57,0,1.55-.27,2.16-.6,1.46-.78,5.44-.62,6.31.26.38.38,2.98,1.34,5.78,2.14,4.18,1.19,5.97,1.44,10.01,1.36,2.7-.05,5.29-.21,5.76-.35.67-.2.92.25,1.21,2.16.41,2.72,2.49,5.07,4.94,5.56,1.37.27,1.46.46,1.8,4.06.34,3.65,2.62,11.78,3.3,11.8,2.45.07,10.18,1.66,10.53,2.16.25.37.34,1.65.19,2.85-.15,1.2-.04,2.32.24,2.49s.5.88.5,1.56c0,1.52,2.19,2.29,3.74,1.32,1.43-.89,2.18-.06,3.19,3.53.47,1.67,1.2,3.33,1.63,3.68.42.35,3.04.85,5.81,1.1,5.42.5,7.57,1.12,7.24,2.1-.11.34-.96.81-1.88,1.05s-1.79.75-1.94,1.14c-.32.84.83,3.2,2.59,5.29.7.83,1.35,2.2,1.44,3.04.15,1.34.38,1.53,1.81,1.53,1.17,0,1.95.41,2.75,1.42,1.06,1.35,1.07,1.42.14,1.42-1.18,0-3.23,2.06-3.23,3.24,0,.47.56,1.45,1.24,2.19.77.83,1.57,2.75,2.1,5.07,1.17,5.05,1.63,6.06,2.79,6.06.54,0,1.49.41,2.11.91.96.78,1.14,1.49,1.22,5.04.09,3.76,0,4.15-.94,4.32-1.77.32-1.96.96-.76,2.58.87,1.18,1.21,2.48,1.38,5.35.35,6,.31,5.92,4.31,7.94,2.1,1.06,3.61,2.15,3.61,2.61,0,.43-.46,1.68-1.01,2.77-1.69,3.31-3.13,7.46-3.13,9.03,0,1.1.65,2.12,2.46,3.88,4.66,4.53,8.92,12.39,8.92,16.48,0,.88-.27.96-2.49.67-1.37-.18-3.75-1.03-5.3-1.9-1.91-1.07-3.89-1.7-6.18-1.95-1.85-.2-4.92-.72-6.83-1.15-6-1.35-6.42-1.17-9.99,4.33-2.98,4.59-3.18,4.78-5,4.79-1.57,0-2.16.34-3.46,1.98-1.49,1.88-1.69,1.97-4.31,1.86-1.51-.06-3.42.14-4.24.45-1.42.53-1.47.67-1.19,3.06.29,2.42.25,2.5-1.04,2.5-.96,0-2.19.89-4.37,3.17l-3.03,3.17-1.82-1.39c-2.86-2.18-4.41-2.54-7.04-1.62-2.77.97-4.82,1.03-5.51.16-.86-1.08-2.18-8.89-1.86-10.91l.31-1.89h-3.69c-3.77,0-3.93-.1-3.71-2.23.12-1.12-.87-2.43-1.83-2.43-.38,0-1.5.55-2.49,1.22-1.6,1.09-2.11,1.17-4.55.79-2.32-.37-3.1-.8-4.99-2.77-1.71-1.78-2.76-2.42-4.4-2.68-1.4-.22-2.64-.86-3.52-1.81-1.66-1.78-3.85-1.93-5.8-.39-1.1.86-1.36,1.51-1.36,3.31,0,1.23-.46,3.25-1.02,4.49s-1.03,2.85-1.03,3.59-.77,2.22-1.75,3.36c-1.19,1.4-1.85,2.8-2.1,4.49-.35,2.38-1.34,3.46-1.34,1.47,0-.86-.28-.95-2.2-.7-3.5.45-4.68,1.04-4.38,2.18.15.59-.14,1.36-.72,1.88-.54.49-.98,1.3-.98,1.8s-.76,1.38-1.68,1.95c-.92.57-2.35,1.74-3.17,2.59-1.46,1.52-1.47,1.61-.93,4.7.3,1.73.89,3.63,1.3,4.21.41.58.63,1.51.48,2.05-.18.7.1,1.13.96,1.46.67.26,1.8,1.42,2.52,2.58.71,1.16,1.61,2.12,2,2.13.47,0,.57.32.32.92-1.12,2.66-.97,2.95,2.8,5.2,2.01,1.2,3.89,2.17,4.2,2.17.97,0-.41,1.95-2.1,2.94-1.06.62-1.52,1.27-1.42,1.97.14.95.46,1.02,3.72.85l3.57-.19-.3,1.87c-.36,2.21.47,2.46,3.04.89.88-.54,2.62-1.09,3.88-1.23,1.26-.14,3.39-.66,4.74-1.15,2.14-.78,2.46-1.08,2.46-2.36,0-.8.26-1.62.57-1.81s.47-1.04.34-1.87c-.16-1.12.06-1.72.84-2.27,1.23-.86,3.21-.98,3.68-.23.54.87,2.98.58,4.12-.5l1.08-1.02.05,4.51c.06,5.19,1.53,9.43,3.26,9.43,1.23,0,1.53.88.97,2.84-.24.85-.44,2.66-.44,4.01,0,1.86-.19,2.46-.79,2.46-.46,0-.92.64-1.09,1.52-.37,1.84-1.78,2.55-2.52,1.26-1.25-2.2-2.7-3.15-5.35-3.5-2.89-.38-3.93-.1-3.53.96.14.36.07.86-.15,1.11s-.7,1.56-1.06,2.91c-.54,2.03-.87,2.46-1.85,2.46-1.23,0-4.37,2.29-4.37,3.19,0,.28.95,1.48,2.12,2.67,1.16,1.19,2.43,2.51,2.81,2.95.82.92,1.87,3.42,2.07,4.9.08.57.3,1.53.49,2.12.33,1.01.02,1.16-4.21,2.02-5.07,1.04-5.73,1.37-5.96,3-.2,1.39-1.36,1.66-2.8.65h0l.05.05Z"/>
      <path id="path28" class="cls-1" d="m328.79,623.25c-1.12-.32-1.27-.63-1.14-2.28.17-2.18-1.55-6.56-2.59-6.56-.38,0-.91-.52-1.19-1.16-.41-.94-.96-1.18-2.84-1.25-1.28-.04-3.55-.53-5.05-1.08l-2.73-1,1.04-1.33c1.22-1.55,1.34-3.7.3-5.68-.43-.82-.54-1.54-.26-1.71.27-.16.48-.71.48-1.21,0-.61-.93-1.29-2.86-2.1-2.69-1.11-3.98-1.19-5.99-.33-.58.25-.92.03-1.12-.71-.24-.92-.69-1.06-3.23-1.06h-2.95l.33,1.76c.38,2.02-.25,2.5-2.29,1.75-.85-.32-1.92-.28-3.13.12-2.8.92-4.34.52-4.53-1.16-.13-1.15-.53-1.51-2.17-1.95-1.24-.33-2.13-.93-2.33-1.56-.18-.56-.74-1.25-1.26-1.52-.66-.35-.86-.9-.67-1.86.3-1.55-1.54-5.66-2.73-6.11-.42-.16-1.1-.17-1.5-.01-.43.17-1.1-.27-1.61-1.05-.51-.77-1.36-1.33-2.03-1.33-1.76,0-3.06-1.74-2.69-3.59l.31-1.55-3.45.17c-2.01.1-3.54.42-3.65.77-.11.33-.91.96-1.77,1.41-1.3.67-1.65.69-2.01.12-.24-.38-.44-.9-.45-1.16-.02-1.2-2.35-4.97-3.07-4.98-.87,0-4.69-6.51-4.69-7.99,0-1.32-1.5-3.91-2.25-3.91-.37,0-.99-.58-1.37-1.29s-.85-1.29-1.04-1.29-1.19-.81-2.22-1.81-2.09-1.81-2.36-1.81-2.21-1.4-4.29-3.1c-2.09-1.71-4.23-3.1-4.76-3.1s-1.65-.58-2.5-1.29c-.85-.71-1.29-1.29-.98-1.29.85,0,.67-1.54-.22-1.88-.43-.16-.78-.77-.78-1.34,0-.83-.24-.98-1.16-.73-.64.17-1.34.32-1.55.32s-.39.47-.39,1.04-.32,1.03-.71,1.03c-1.08,0-3.36-1.98-4.23-3.67-.43-.83-1.09-1.51-1.48-1.51s-.99-.35-1.34-.78c-.39-.47-1.52-.78-2.85-.78-1.77,0-2.26.2-2.47,1.03-.25.95-.4.98-1.94.33-.92-.39-1.9-1.14-2.19-1.68-.28-.54-1.01-1.53-1.61-2.21-.77-.87-.9-1.3-.45-1.47,1.14-.41.69-3.03-.91-5.24-.85-1.18-1.55-2.29-1.55-2.47s.64-1.1,1.42-2.04,1.81-2.25,2.28-2.91c.77-1.07.98-1.13,2-.51.81.49,2.02.59,4.16.34,2.28-.26,3.43-.15,4.67.47,2.17,1.08,3.05,1.04,3.05-.15,0-.53.35-1.26.78-1.62.87-.72,1.02-2.12.31-2.87-.28-.3.19-.91,1.21-1.57,1.54-1,1.87-1.03,4.22-.41,4.19,1.1,4.36,1.04,4.36-1.64,0-3.67-2.33-7.05-3.29-4.76-.48,1.15-2.52-1.73-2.24-3.16.18-.96-.2-1.67-1.58-2.93l-1.82-1.67.91-2.37c.94-2.46.79-3.96-.39-3.96-1.01,0-2.46-2.76-2.46-4.68,0-.92.28-2.61.62-3.75.58-1.93.54-2.14-.52-2.84-.63-.42-1.14-1.22-1.14-1.78s-.44-1.58-.98-2.27c-1.28-1.63-.9-2.91,1.14-3.81,2-.88,3.42-2.5,3.44-3.89.04-2.41-3.71-6.42-5.39-5.77-.42.16-.9.07-1.07-.2-.17-.27-1-.49-1.86-.49-.96,0-2.31-.61-3.55-1.61-2.07-1.67-2.18-2.4-.62-4.21.68-.8.69-1.01.02-1.81-.42-.5-1.19-1.89-1.71-3.1-.71-1.63-1.46-2.42-2.92-3.06-1.32-.58-2.16-1.39-2.56-2.46-1.15-3.07-1.78-4.06-2.94-4.59-1.44-.66-1.48-1.2-.14-1.92,2.23-1.2.35-3.68-2.46-3.24-.93.14-1.82.48-1.99.74-.39.63-1.76-.5-1.76-1.44,0-.39.22-.71.49-.71.48,0,.62-3.58.21-5.23-.11-.46-1.11-1.24-2.21-1.73-1.65-.75-2.05-1.22-2.3-2.77-.18-1.09-.07-2.01.24-2.21.3-.19.49-.78.43-1.31-.07-.54.06-1.97.28-3.18.37-2.03.52-2.2,2.01-2.21,2.68-.01,3.94-.56,4.26-1.87.41-1.62.74-1.56,3.3.58,2.95,2.46,3.71,2.34,5.07-.78.62-1.42,1.36-2.59,1.65-2.59s1.42-.9,2.51-1.99c1.6-1.6,2.05-2.5,2.31-4.53.41-3.31-.27-6.7-1.65-8.16-.6-.64-1.1-1.35-1.1-1.57s1.26-1.79,2.8-3.49c2.42-2.67,2.89-3.54,3.46-6.42l.66-3.33,1.17,1.1,1.17,1.1,2.38-1.15c2.29-1.11,2.43-1.12,3.39-.24.57.52,1.01,1.58,1.01,2.46s.23,2.97.51,4.71.65,4.28.81,5.65c.4,3.29,1.25,3.54,4.99,1.46,2.57-1.43,3.06-1.55,3.33-.85.17.45,1.18,1.26,2.24,1.81,1.06.54,2.82,2.16,3.92,3.59,1.32,1.73,2.61,2.81,3.83,3.2,2.31.74,3.13,1.39,3.14,2.46,0,1.39.97,4.45,1.75,5.5.63.86.84.9,1.6.27.75-.63,1.12-.59,2.68.25,1.53.82,1.88.86,2.26.24.38-.61.66-.54,1.65.38,2.01,1.88,3.48,1.92,6.62.2l2.84-1.55,1.14,1.07c1.12,1.05,3.27,1.36,7.15,1.01.85-.08,4.18.49,7.4,1.26l5.85,1.4,1.14-1.07c1-.94,1.42-1.01,3.38-.57,1.23.28,3.44.44,4.91.36l2.68-.14.26,3.62c.14,1.99.45,3.91.68,4.27.23.36,1.2.65,2.16.65,1.67,0,1.76.1,2.31,2.65.33,1.54,1.26,3.52,2.21,4.73,1.46,1.85,1.65,2.45,1.67,5.52.02,2.54.3,3.85,1.05,4.97,2.64,3.94,2.82,4.89,2.62,14.04-.16,7.07-.05,8.83.59,9.81.64.97.68,1.67.25,3.67-.3,1.36-.51,3.28-.48,4.28.09,3.11-.49,7.22-1.14,8-.98,1.18-.47,3.16.76,2.95,2.16-.37,3.46-.16,4.41.7.92.83,1.13.84,3.08.05,3.18-1.27,4.12-1.11,4.49.76.18.88.69,1.71,1.15,1.85s1.45.59,2.21.99c2.26,1.21,2.67.97,2.37-1.33-.15-1.14-.08-2.07.17-2.07s1.64.7,3.09,1.56c1.46.86,2.84,1.44,3.09,1.29.79-.49,1.16-3.37.53-4.13-.53-.64-.17-2.14.79-3.28.08-.09.83.19,1.67.62,1.2.62,2.33.7,5.26.39,3.85-.41,4.41-.77,5.03-3.17.48-1.88,1.97-3.61,4.08-4.74l1.85-.99,2.97,1.81c1.9,1.15,3.36,1.71,4.04,1.53.59-.15,2.66.2,4.6.78,3.35,1,3.59,1.01,4.52.17.94-.85,1.07-.79,3.01,1.44,1.11,1.28,3.1,3.96,4.42,5.95,3.45,5.22,6.07,7.38,9.75,8.06,1.83.34,3.11.37,3.3.07.17-.27,1.15-.64,2.17-.82,1.54-.28,2.2-.09,3.92,1.16,1.74,1.26,2.54,2.55,4.98,7.97,1.6,3.56,3.36,8.09,3.92,10.08.87,3.14.91,3.78.29,4.85-2.21,3.8-2.44,4.72-1.57,6.2.45.77.83,1.9.83,2.52s.26,1.6.57,2.18c.43.79.4,1.37-.08,2.28-.57,1.07-.48,1.47.79,3.3,1.23,1.77,1.4,2.42,1.13,4.35-.17,1.25-.77,3.05-1.33,4.01s-1.09,2.44-1.18,3.29c-.13,1.28.04,1.58,1,1.72.64.09,1.16.21,1.16.26s-.46,1.31-1.03,2.79c-.56,1.48-.91,3.01-.76,3.38.45,1.17-2.74,3.71-5.36,4.27-2.27.49-2.43.63-2.48,2.21-.03.93-.18,1.81-.34,1.97-.56.56-4.01-.42-4.01-1.13,0-.98-1.04-.9-3.84.3-2.22.95-2.59,1.47-2.51,3.53.02.41-.33.55-.92.37-.52-.16-1.8.06-2.85.5-1.05.44-2.52.81-3.27.82-3.38.05-7.28,4.77-7.26,8.78,0,.71-.15,2.05-.34,2.97-.19.94-.13,1.68.14,1.68.29,0,.32,1.37.06,3.49-.27,2.23-.24,3.55.09,3.66.28.09.51.91.51,1.81,0,1.22.42,1.99,1.68,3.03,2.09,1.73,1.55,2.5-2.02,2.87-1.72.18-2.78.61-3.38,1.36-.78.98-1.05,1.03-2.52.48-1.34-.51-1.92-.48-3.11.13-1.88.97-3.07,2.7-3.07,4.44,0,.76-.41,1.86-.91,2.45-.82.97-1.12,1.02-3.32.5-1.85-.44-2.97-.42-4.76.08-2.31.65-2.35.7-2.95,3.57-1.56,7.48-1.97,8.37-4.27,9.42-2.55,1.16-4.48,1.28-4.48.28,0-1.15-2.52-2.52-3.96-2.16-.7.18-2.23,1.01-3.39,1.85-1.17.84-2.53,1.54-3.04,1.54s-1.07.47-1.25,1.03c-.26.83-.76,1.02-2.49.98-1.19-.03-2.75-.22-3.46-.42h0v-.04Z"/>
      <path id="path30" class="cls-1" d="m376.52,767.03c.12-1.77.08-1.81-1.69-1.7-2.82.17-3.32-.15-2.36-1.52,1.57-2.24,1.05-3.1-3.31-5.58-3.96-2.25-4.07-2.37-3.35-3.47.41-.63.74-1.76.74-2.52,0-1.18-.18-1.34-1.28-1.13-.9.17-1.37-.02-1.56-.64-.15-.49-.97-1.56-1.81-2.38s-1.53-1.78-1.54-2.12c0-.34-.48-1.41-1.06-2.38-.74-1.26-.98-2.42-.85-4.04.17-2.02.49-2.51,2.81-4.34,1.44-1.14,2.63-2.46,2.66-2.94.02-.48.27-1.02.56-1.2s.87-1.14,1.28-2.14c.64-1.54.94-1.76,1.93-1.45.65.2,1.36.68,1.59,1.07.52.89,2.65.93,3.34.06.28-.36.68-1.56.88-2.67.33-1.81,2.5-5.45,3.52-5.91.21-.09.39-1.03.39-2.07s.45-2.64,1.01-3.54c.57-.93,1.07-2.84,1.16-4.38.14-2.38.34-2.84,1.6-3.53,1.35-.74,1.5-.72,2.33.31,1.13,1.41,2.8,2.26,4.44,2.26.94,0,2.17.98,4.56,3.62,3.21,3.55,4.56,4.39,4.56,2.85,0-.59.64-.78,2.64-.78,1.85,0,3.09-.32,4.16-1.09l1.53-1.09-.33,1.3c-.2.81,0,1.78.53,2.6.78,1.2,1.08,1.28,3.65,1.01l2.8-.29-.05,1.49c-.03.82.2,2.26.5,3.2.52,1.59.46,1.74-.77,2.21-2.57.98-4.15,2.53-5.08,4.99-.52,1.36-1.66,3.41-2.54,4.55-2.46,3.18-3.29,5.35-3.66,9.53-.26,2.98-.63,4.22-1.65,5.56-.88,1.16-1.23,2.15-1.07,3.02.14.71.05,1.29-.2,1.29s-.45.46-.45,1.02c0,1.21-1.66,2.2-3.93,2.34-1.97.12-5.09,1.84-5.22,2.88-.05.41-.24,1.85-.42,3.21-.18,1.39-.59,2.46-.95,2.46s-1.49.47-2.55,1.03-2.9,1.03-4.07,1.03c-1.43,0-2.38.3-2.84.91-.62.81-.69.71-.57-.91h0Z"/>
      <path id="path32" class="cls-1" d="m478.43,861.17c-1.46-1.34-3.73-2.96-5.05-3.6-2.23-1.08-2.6-1.11-5.33-.5-1.62.37-3.72.64-4.68.61-1.31-.04-1.8.2-2,.95-.14.55-.61,1-1.04,1-.62,0-.65-.15-.16-.74.34-.41.54-1.4.45-2.2-.16-1.38-.33-1.47-3.27-1.71-3.34-.28-4.4-.71-4.4-1.76,0-1.18-3.05-3.93-4.36-3.93-.96,0-1.32-.35-1.59-1.55-.45-2.05-.87-2.23-3.48-1.5-2.64.74-4.61.63-7.24-.43-1.07-.43-2.3-.65-2.73-.48-.43.17-1.99.07-3.46-.21-3.02-.57-3.72-.12-3.26,2.09.26,1.26.25,1.27-.53.26-.44-.57-.94-1.56-1.1-2.2s-.61-1.16-1-1.16-1.47-.68-2.4-1.51c-1.34-1.19-1.85-2.24-2.48-5.04-.61-2.74-.99-3.53-1.68-3.49-.49.02-2.27.08-3.94.13l-3.05.09-.2,3.75c-.16,3.04-.48,4.16-1.64,5.9-1.52,2.27-3.74,3.21-4.72,2.01-.3-.36-1.14-.8-1.88-.97s-1.98-.81-2.76-1.43c-1.9-1.49-5.54-6.13-5.22-6.65.14-.23-.09-.7-.52-1.05-.42-.35-.77-.87-.77-1.15s-.58-.97-1.29-1.53-1.29-1.43-1.29-1.94c0-.91-2.68-6.39-4.43-9.07-.5-.76-1.1-2.59-1.33-4.07-.46-2.95-1.19-4.69-2.67-6.39-.7-.81-.89-1.54-.65-2.62.31-1.42.59-1.55,5.47-2.65l5.14-1.16-.08-2.94c-.05-2.09-.42-3.47-1.26-4.76-1.8-2.77-4.51-6.43-5.09-6.88-.96-.74,1.42-2.02,3.23-1.74,1.65.26,1.68.23,1.68-1.74,0-2.75.68-4.29,2.27-5.14,1.93-1.03,3.73-.08,4.77,2.54.81,2.02,1.86,2.65,2.55,1.53.19-.3.9-.76,1.58-1.02s1.24-.79,1.24-1.18.47-1.13,1.03-1.65c.84-.76,1.03-1.59,1.03-4.42,0-3.09.12-3.51,1.07-3.76.71-.19.67-.98-.13-2.38-.66-1.16-1.55-2.11-1.98-2.11s-1.23-1.09-1.8-2.46c-.82-1.97-1-3.47-.91-7.55.1-4.47,0-5.12-.79-5.33-1.24-.32-1.11-2.93.24-4.75.65-.88,1.2-2.71,1.43-4.77.21-1.84.55-3.57.77-3.86s.52-1.39.68-2.45c.18-1.15.94-2.62,1.88-3.62.87-.93,1.72-2.1,1.88-2.6s.49-.91.74-.91.52-.75.61-1.66c.12-1.22.63-1.98,1.94-2.86.98-.66,2.02-1.11,2.32-1.01.3.1.73,1.14.97,2.32.38,1.91.61,2.18,2.21,2.48,2.02.38,3.88.13,6.26-.85,1.52-.62,1.8-.56,3.88.85,1.23.84,2.68,1.7,3.22,1.92,1.49.6,3.38-.81,6.31-4.7.31-.41,1.47-.9,2.59-1.09l2.03-.34-.11-2.7-.11-2.7,2.18-.09c1.2-.05,2.88-.04,3.73.02,1.21.09,1.89-.28,3.1-1.7,1.17-1.37,2.05-1.87,3.57-2.03,1.11-.12,2.2-.53,2.44-.92.23-.39,1.66-2.57,3.18-4.85,2.69-4.05,2.8-4.14,4.81-4.09,3.91.09,13.43,1.95,14.83,2.91,1.75,1.19,5.35,2.48,6.94,2.48.83,0,1.47.5,2.02,1.55.59,1.15,1.17,1.55,2.21,1.55s1.87.58,3.22,2.29c1.22,1.54,2.28,2.35,3.24,2.46l1.43.17.25,5.17c.14,2.85.6,6.45,1.02,8.02.43,1.57.78,3.95.78,5.29,0,1.87.41,3.09,1.72,5.17,2.02,3.21,3.22,6.78,3.01,8.9-.11,1.09.18,1.77,1.03,2.41,1.09.82,1.13,1.05.58,2.86-.51,1.66-.47,2.11.23,2.88.78.86.68.98-1.57,1.94-1.32.57-2.4,1.37-2.4,1.78s-.25.83-.55.93c-.93.31.05,1.9,1.87,3.03,1.7,1.05,2.52,1.08,6.77.22.9-.18,1.27.17,1.94,1.85.46,1.14.83,2.75.83,3.58,0,1.24.26,1.56,1.53,1.84,1.4.31,1.5.48,1.2,1.98-.46,2.31-2.05,5.78-3.03,6.59-.68.56-.76,1.32-.47,4.21.19,1.94.21,3.52.04,3.52s-.75-.27-1.27-.6c-.78-.49-1.5-.3-3.97,1.03-1.66.9-3.39,1.63-3.85,1.63s-1.74.96-2.86,2.13l-2.02,2.13,1.47,1.07c1.09.79,1.28,1.15.73,1.36-.41.16-1.77,1.42-3.02,2.79-1.87,2.04-2.29,2.87-2.31,4.53-.02,1.59-.22,2.03-.95,2.03-.51,0-.88.29-.82.65.12.7-.54,2.35-2.54,6.34-.71,1.42-1.44,3.4-1.62,4.4-.29,1.65-.49,1.83-2.25,1.97-2.37.2-3.67,1.93-2.23,2.98.57.42.68.76.31.98-1.04.64-3.22,5.56-2.93,6.64.29,1.11-.77,3.43-2.47,5.4-.83.97-1.03,2.11-1.16,6.71-.18,6.64.94,11.15,3.37,13.53,1.41,1.38,1.45,1.53.63,2.24-.8.68-1.15.52-3.54-1.68h.01Z"/>
      <path id="path34" class="cls-1" d="m444.11,910.1c-.85-.36-1.19-.88-1.08-1.63.09-.61-.45-1.82-1.23-2.74-1.25-1.49-1.36-1.93-1.09-4.54.27-2.57.11-3.27-1.45-6.36-1.29-2.55-2.16-3.64-3.31-4.12-2.26-.94-3.16-2.64-3.16-5.98,0-2.88,0-2.89-2.09-3.82-2.5-1.12-3.57-2.4-3.59-4.32,0-.82-.3-1.42-.69-1.42s-1.16-.45-1.75-.99c-.87-.81-1.14-1.91-1.45-6.05l-.38-5.06-3.26-3.26c-1.79-1.79-3.51-3.26-3.81-3.26s-.9-.68-1.33-1.5c-.43-.83-2.46-2.72-4.51-4.22-3.25-2.36-3.6-2.77-2.69-3.11,2.69-.99,4.84-5.3,4.84-9.7v-2.23l2.71.16,2.7.16.53,3.08c.49,2.84.73,3.23,3,4.95,1.36,1.03,2.89,2.65,3.41,3.61,1.13,2.11,2.2,2.86,3.42,2.39.66-.25.84-.76.68-1.9l-.23-1.55,2.89.1c1.59.06,3.65.42,4.59.8,1.68.68,6.12,1.02,8.11.61.71-.14,1.22.22,1.71,1.22.47.97,1.1,1.42,1.94,1.42.72,0,1.48.44,1.8,1.03.3.57.89,1.03,1.31,1.03s.76.43.76.94.53,1.45,1.19,2.06c1.01.95,1.57,1.07,3.88.79,2.85-.34,3.24,0,2.1,1.83-.88,1.41-.23,2.47,1.73,2.84,1.69.32,1.72.38,1.54,2.64-.18,2.2-.09,2.37,1.76,3.46,1.18.7,1.66,1.22,1.22,1.34-.4.11-1.6.56-2.67,1.01-1.59.67-1.94,1.08-1.94,2.27,0,.93-.38,1.66-1.03,2.01-.75.4-1.03,1.08-1.03,2.48,0,2.3.29,2.75,2.32,3.72l1.55.74-1.42.19c-1.27.17-1.42.4-1.42,2.17,0,1.32-.27,2.08-.81,2.29-1.46.56-.73,3.51,1.16,4.71,2.36,1.49,3.04,2.96,2.46,5.31-.44,1.76-.65,1.95-2.42,2.1-1.53.13-1.94.38-1.94,1.17,0,.56-.29,1.94-.64,3.07-.59,1.88-.8,2.06-2.46,2.09-3.18.05-5.32,1.09-5.8,2.82-.24.85-.34,1.94-.22,2.41.26,1.06-2.52,1.51-4.38.71h0l-.03.03Z"/>
      <path id="path36" class="cls-1" d="m627.67,883.31c-.69-.92-3.18-4.36-5.54-7.63s-4.36-6.04-4.44-6.14c-.09-.1-3.83.33-8.33.97-10.72,1.52-16.26,1.19-48.53-2.93-1.66-.21-4-1.14-6.56-2.61l-3.97-2.28-14.39.23c-7.92.13-14.98.19-15.69.15s-4.7-.05-8.86-.02c-5.91.05-7.94.25-9.28.91-1.16.58-1.88.68-2.24.33-.98-.98-2.98-.53-4.54,1.03-1.24,1.24-2,1.55-3.74,1.55-1.2,0-2.64-.34-3.19-.76s-1.75-.77-2.66-.78c-1.83-.02-2.66-.83-1.77-1.72,1.03-1.03.61-2.54-1.17-4.22-2.46-2.32-3.6-6.46-3.2-11.62.39-5.05.47-5.48,1.22-6.39,1.56-1.88,3.07-5.42,2.64-6.19-.57-1.02.76-3.9,2.46-5.36,1.08-.92,1.18-1.27.73-2.46-.49-1.3-.43-1.39.91-1.39,1.88,0,2.68-.86,2.68-2.89,0-.9.35-1.93.78-2.29s.78-.97.78-1.37c0-.49.38-.63,1.16-.44.77.19,1.68-.14,2.72-.99,1.28-1.05,1.45-1.43.99-2.2-.31-.51-1.13-1.07-1.81-1.24l-1.24-.31,1.76-1.66c1.56-1.48,1.69-1.81,1.18-2.93s-.34-1.54,1.55-3.73c1.17-1.36,2.67-2.77,3.35-3.13,1.5-.81,1.55-1.72.18-2.97l-1.04-.94,1.09-1.16c.6-.64,1.71-1.32,2.47-1.5.76-.19,1.81-.73,2.34-1.21.67-.61,1.8-.84,3.75-.8l2.79.07v-3.61c0-2.82.22-3.89,1.03-4.92.57-.72,1.03-1.63,1.03-2.02,0-.41.47-.65,1.14-.58,1.64.18,2.62-2.52,1.27-3.51-.75-.55-.82-.89-.38-1.73.98-1.83.69-2.66-.94-2.66-1.2,0-1.61-.31-2.04-1.53-.51-1.47-.46-1.55,1.11-1.8,1.73-.27,22.36-1.33,26.02-1.33h2.12l.6,5.27c.33,2.9.71,5.38.84,5.51s2.75-.72,5.81-1.89l5.57-2.12,27.94-.61c15.6-.34,79.83-.71,145.44-.84l117.5-.23.26,6.89c.14,3.79.05,7.03-.2,7.19s-12.27,2.45-26.7,5.09c-25.85,4.72-26.8,4.86-62.98,8.8l-36.73,4-20.69,10.45-20.69,10.45-12.68,16.5c-8.39,10.93-13.04,17.43-13.76,19.26-.6,1.51-1.95,5.02-3.01,7.79l-1.93,5.04-6.29,3.89c-6.06,3.74-6.41,3.89-9.51,3.89s-3.29-.1-4.46-1.68h0l-.03.06Z"/>
      <path id="path44" class="cls-1" d="m528.76,357.94c-1.09-1.43-1.67-1.78-2.57-1.55-1.4.35-6.06-3.42-10.64-8.63-2.47-2.8-3.15-4.03-4.35-7.87l-1.42-4.55-7.81.36c-7.3.34-11.23,1-13.67,2.3-1.11.6-2.85.19-6.56-1.53-1.14-.53-4.14-1.58-6.66-2.35-2.53-.76-5.03-1.82-5.56-2.36-2.01-2.01-5.33-.68-7.15,2.86-1.28,2.48-3.36,4.3-3.91,3.41-.17-.28-.96-.51-1.74-.51s-1.89-.44-2.47-.97c-.58-.54-2.06-1.15-3.31-1.36-1.24-.21-2.92-.87-3.72-1.46-1.39-1.03-1.44-1.22-1.13-4.02.3-2.63.22-3.01-.73-3.51-.58-.31-1.53-.57-2.11-.57s-1.31-.49-1.63-1.08c-.47-.89-.89-1.03-2.29-.76-1.47.28-1.9.1-3.06-1.28-.74-.88-1.35-2.16-1.35-2.85,0-1.77-1.75-2.66-6.04-3.08-3.6-.35-3.76-.42-5.06-2.39-.74-1.12-2.5-3.31-3.92-4.87s-2.57-3.26-2.57-3.77c0-1.28-4.13-3.2-6.87-3.2-1.2,0-3.58-.46-5.29-1.02-1.71-.57-4.79-1.29-6.86-1.6-3.31-.51-3.75-.71-3.77-1.69,0-.61-.36-1.57-.78-2.13-.55-.73-.67-1.69-.44-3.48.3-2.25.19-2.63-1.29-4.31-.89-1.01-1.62-2.25-1.62-2.76s-.26-1.18-.59-1.5c-.32-.32-.62-1.87-.66-3.43-.08-3.09-.5-3.96-1.46-3.01-1.01,1.01-2.43.71-2.69-.55-.73-3.56-.8-6.64-.19-7.65.57-.93.52-1.19-.32-1.81-.94-.7-.92-.75.42-1.26.77-.29,1.71-.53,2.08-.53.96,0,3.4-2.02,3.4-2.82,0-1.19,1.62-2.07,4.34-2.35,2.39-.24,2.7-.42,3.16-1.83.99-2.97,2.67-4.75,4.77-5.03,6.12-.83,7.38-3.08,3.6-6.43-1.23-1.09-3.73-3.8-5.56-6.03-3.22-3.91-3.39-4.04-5.22-3.81-2.49.32-5.09-1.19-5.09-2.94,0-.69.32-1.37.72-1.52.66-.25,2.39-3.13,2.39-3.98,0-.55-5.84-2.58-7.43-2.58-.87,0-1.37-.28-1.37-.77,0-.65-.76-.72-4.79-.47-5.36.33-7.42.93-8.19,2.37-.9,1.69-1.61.44-1.46-2.6.08-1.6-.04-3.89-.27-5.08-.36-1.89-.67-2.27-2.43-2.97-2.55-1.02-6.71-1.02-13.49-.02-5.84.87-6.41.78-13.08-2-1.71-.71-4.38-1.43-5.95-1.61l-2.85-.31-1.81,2.34c-1.56,2.02-2.07,2.34-3.71,2.34-1.42,0-2.17-.33-2.92-1.29-.56-.71-1.27-1.29-1.59-1.29-.48,0-3.8-2.25-6.12-4.15-.9-.74-1.63-.64-4.1.56-2.57,1.24-3.73.89-5.2-1.6-1.71-2.89-6.29-3.14-9.93-.55-1.88,1.34-1.8,1.34-3.38-.13-.96-.89-2.44-1.38-5.59-1.87-6.39-.99-16.96-.03-16.96,1.54,0,.25-.92.74-2.03,1.07-1.74.52-2.16.49-2.88-.24-.66-.66-1.87-.85-5.43-.85-2.52,0-5.22.24-5.99.53s-3.17.77-5.34,1.05c-2.16.28-4.81.9-5.88,1.36s-2.05.74-2.17.61c-.31-.31-.52-4.77-.39-8.26.11-2.8,1.26-5.12,2.55-5.12,1.07,0,2.22-1.97,2.22-3.8,0-1.53-.24-2-1.22-2.38-1.29-.49-1.88-2.25-1.88-5.59,0-1-.27-2.72-.6-3.83-.5-1.66-1.01-2.19-2.9-3.03-1.26-.56-3.41-1.83-4.77-2.83-2.67-1.96-3.41-3.71-2.44-5.83.42-.93.41-1.33-.07-1.63-1.44-.89,1.92-2.17,17.76-6.76,26.2-7.58,27.42-8.02,30.48-10.81,1.45-1.32,3.25-2.95,4-3.61l1.37-1.21,25.27,4.96c13.9,2.73,26.2,5.4,27.34,5.94,1.14.54,11.5,7.21,23.02,14.83,20.52,13.56,21.26,14,35.63,20.92l14.67,7.07,15.57,12.89c24.87,20.6,59.09,49.3,79.57,66.75,10.42,8.87,19.5,16.49,20.18,16.92.8.51,4.32,1.09,10.01,1.63,4.83.47,8.84.91,8.93,1s-.91,1.15-2.21,2.36l-2.36,2.21.33,7.32c.58,12.79.73,11.74-4.08,28.42-4.35,15.09-5.7,18.99-6.57,18.99-.24,0-1.07-.83-1.84-1.84h.02Z"/>
      <path id="path46" class="cls-1" d="m286.23,335.3c.4-3.87-.5-8.41-1.79-9.1-.47-.25-1.84-.28-3.04-.06l-2.18.4-1.01-2.7c-.55-1.48-1.29-4.07-1.64-5.75-.54-2.6-.93-3.28-2.66-4.6-1.11-.85-2.5-1.98-3.08-2.51-.74-.67-1.5-.87-2.55-.66-1.3.26-1.5.15-1.5-.88,0-.65.25-1.43.57-1.74.41-.41.41-.86,0-1.62-.31-.58-.57-3.23-.57-5.88s-.18-5.09-.39-5.42c-.21-.33-1.31-.76-2.45-.96-1.14-.2-3.17-1.06-4.51-1.91-1.35-.85-2.66-1.46-2.93-1.36s-1.42,1.57-2.56,3.28c-1.94,2.89-2.22,3.1-4.05,3.1s-1.97.07-1.81,1.55c.09.85.49,1.91.88,2.35.62.68.58.88-.27,1.41-.54.34-1.14,1.45-1.33,2.46l-.35,1.85-2.65-.15-2.65-.15.08-2.59c.13-4.17.71-6.03,2.83-9.08,2.49-3.56,2.52-4.8.19-6.93-1-.91-1.82-2.11-1.82-2.66s-.47-1.58-1.02-2.29c-.56-.71-1.02-1.7-1.02-2.21,0-.67-.39-.89-1.43-.82-.78.05-2.24-.39-3.23-.98-2.87-1.69-4.77-1.9-6.19-.67-1.26,1.09-4.06,1.36-7.78.74l-1.81-.3.06-5.75c.07-6.39.02-6.49-4.28-8.68-.97-.49-2.26-1.53-2.87-2.3-1.03-1.31-1.31-1.39-4.09-1.13-2.8.25-3.57-.06-3.57-1.45,0-.1,1.08-.35,2.39-.54l2.39-.36,2.43-5.23c1.34-2.88,3.07-6.75,3.85-8.6l1.42-3.36,7.21-4.29c3.97-2.36,7.21-4.57,7.2-4.92s-1.57-2.49-3.48-4.76c-5.91-7.04-36.94-43.38-38.25-44.79l-1.24-1.34,19.54-5.85c10.75-3.22,19.86-5.97,20.24-6.11.56-.21.62.4.33,3.17-.36,3.34-.33,3.47,1.16,4.86.84.79,2.97,2.24,4.73,3.24s3.57,2.06,4.03,2.37c.73.5,1.18,3.01,1.7,9.69.02.23.75,1.08,1.63,1.88l1.6,1.46-1.37.97c-3.56,2.52-3.49,2.39-3.93,6.68-.23,2.26-.29,5.69-.12,7.61l.3,3.5,1.86-.33c1.03-.18,2.21-.63,2.64-1,.43-.36,2.17-.82,3.88-1.02,1.71-.19,5-.8,7.31-1.34,4.87-1.14,8.83-.89,9.92.65.73,1.03,3.2,1.32,3.2.38,0-.31.32-.45.71-.3s1.5-.25,2.46-.9c2.24-1.51,3.91-1.92,8.89-2.21,4.72-.27,11.17.67,11.56,1.69.15.38,1.05.96,2.01,1.27,1.46.48,2.05.41,3.71-.45,4.04-2.09,4.53-2.23,6-1.67.77.29,1.4.73,1.4.97s.73,1.17,1.61,2.08c1.88,1.92,3.63,2.11,5.87.64,1.52-1,1.54-1,3.36.09,1.01.6,2.43,1.64,3.16,2.3.73.67,1.62,1.21,1.99,1.21s1.05.47,1.52,1.05c.58.71,1.75,1.15,3.61,1.37,2.73.32,2.77.3,5.17-2.06,2.38-2.34,2.46-2.37,4.49-1.85,1.14.29,2.65.67,3.36.83.71.17,1.76.59,2.33.95.57.35,2.39,1.03,4.06,1.5,2.78.79,3.43.79,8.08.05,6.02-.96,10.45-1.03,12.74-.2,1.9.69,2.28,1.81,2.28,6.74,0,1.69.24,3.52.54,4.07.76,1.41,2.79,1.27,3.8-.27.87-1.33,2.01-1.65,7.18-1.99,2.23-.14,2.97-.02,2.97.5,0,.46.73.7,2.2.73,1.21.02,3.1.44,4.2.92l2,.88-1.35,1.61c-.91,1.08-1.35,2.22-1.35,3.47,0,1.59.29,2.05,2.06,3.22,1.63,1.08,2.42,1.29,3.83,1.03,1.73-.33,1.87-.22,5.42,4.21,2,2.5,4.35,5.01,5.22,5.58s1.58,1.2,1.58,1.4c0,.64-1.72,1.33-4.36,1.72-2,.3-2.92.78-4.27,2.25-.94,1.03-1.72,2.38-1.72,3,0,1.46-.81,1.93-3.09,1.79-2.12-.13-3.12.5-4.78,2.98-.86,1.29-1.89,1.99-3.77,2.59-2.19.69-2.61,1.03-2.75,2.24-.09.78.03,1.42.26,1.42s.45,1.34.47,2.97.22,4.34.43,6.01l.38,3.03,2.02-.32,2.02-.32v2.01c0,2.19,1.64,6.44,3.12,8.09.62.69.99,2.08,1.1,4.15l.17,3.12-1.92.05c-2.98.08-6.79,2.2-7.31,4.06-.24.85-.69,2.25-1.01,3.1s-.56,2.77-.52,4.25l.06,2.7-18.45.15c-17.71.14-18.51.19-20,1.22-2.47,1.71-22.02,10.99-24.43,11.6-1.2.3-3.21,1.42-4.47,2.47-7.74,6.52-9.53,7.56-13.91,8.08-1.35.16-3.33.73-4.4,1.27-1.07.54-3.34,1.15-5.04,1.36-1.71.21-3.52.6-4.03.87-.86.46-.9.25-.58-2.84h.01Z"/>
      <path id="path48" class="cls-1" d="m330.76,490.34c-.19-.19-.34-.86-.34-1.49,0-1.7-3.61-2.45-5.66-1.17-.77.48-1.29.48-2.35,0-.75-.34-2.05-.62-2.9-.62-1.32,0-1.47-.14-1.06-.91.27-.5.48-1.49.47-2.2,0-.71.14-4.35.32-8.1.21-4.18.15-6.93-.16-7.12-.55-.34-.43-7.04.14-7.96.2-.32.07-1.03-.28-1.59-.48-.77-.51-1.93-.1-4.81.48-3.39.43-3.92-.42-5.02-.52-.68-.95-1.44-.95-1.69s-.61-1.39-1.36-2.52c-1.22-1.85-1.34-2.41-1.09-5.43.2-2.47.09-3.47-.41-3.75-1.14-.64-3.21-4.05-3.59-5.89-.68-3.36-.77-3.48-2.75-3.65-1.22-.1-1.95-.44-2.01-.94-.06-.43-.25-2.32-.43-4.22l-.33-3.44-1.81-.34c-1.12-.21-2.1-.11-2.55.27-.48.4-.74.42-.74.06,0-.3.23-.69.52-.87.28-.18.52-.97.52-1.76s.47-1.86,1.03-2.38c.57-.52,1.03-1.43,1.03-2.03s.72-1.97,1.59-3.03c1.52-1.84,1.57-2.05,1.07-4.39-.29-1.35-.69-4.21-.88-6.36-.5-5.47.28-6.34,7.22-8.02,2.81-.68,5.23-1.36,5.39-1.52s.01-1.06-.33-1.99c-.34-.94-.62-3.32-.63-5.29-.01-3.02-.25-4-1.53-6.17-.83-1.42-1.93-3.38-2.45-4.34-.58-1.09-2.65-2.95-5.48-4.92-2.5-1.74-5.61-3.92-6.91-4.84-2.36-1.68-2.38-1.68-8.9-1.71l-6.54-.03,3.82-1c4.44-1.16,5.05-1.57,5.51-3.69.45-2.04.15-2.29-6.62-5.86-3.06-1.61-5.56-3.1-5.56-3.3,0-.79,3.99-4.19,5.8-4.95,1.06-.44,2.84-.8,3.96-.8s3.28-.58,4.8-1.29c1.52-.71,3.61-1.29,4.64-1.29,2.95,0,5.49-1.35,11.02-5.83,4.03-3.27,5.83-4.37,8.39-5.14,1.79-.54,6.11-2.46,9.61-4.29,3.5-1.82,7.64-3.81,9.2-4.42s3.39-1.62,4.05-2.23c1.19-1.11,1.51-1.13,20.34-1.27l19.13-.15-.12-2.96c-.13-3.2.86-7.6,2.03-9,.4-.48,1.79-1.24,3.09-1.68,2.08-.71,2.47-.72,3.21-.04,1.19,1.08,4.44,2.14,7.86,2.56,1.61.2,4.11.81,5.57,1.37s3.68,1,4.95,1c3,0,5.79,1.35,6.4,3.09.26.75,1.69,2.75,3.17,4.44s3.02,3.69,3.41,4.44c.77,1.48,1.47,1.74,6.18,2.28,3.51.41,4.4.91,4.4,2.51,0,.61.73,2,1.62,3.07,1.38,1.67,1.88,1.94,3.39,1.81,1.06-.09,1.94.12,2.2.54.23.38,1.21.85,2.17,1.05l1.75.36-.18,3.16c-.16,2.94-.08,3.23,1.19,4.06.81.53,1.25,1.2,1.08,1.63-.22.57.13.7,1.5.59.98-.08,1.95.01,2.15.22.2.2.9.37,1.55.37s1.32.23,1.5.52c.18.28.8.52,1.39.52s1.86.48,2.81,1.08l1.74,1.08,1.51-1.21c.83-.66,2.14-2.33,2.9-3.7,1.77-3.18,3.42-4.03,5.04-2.6.64.56,3.25,1.68,5.82,2.48,2.56.8,5.47,1.87,6.47,2.38s2.9,1.2,4.23,1.54c2.16.55,2.66.5,4.66-.46,2.63-1.27,8.59-2.14,14.61-2.14h4.28l1.08,3.69,1.08,3.69-2.88,2.64c-1.58,1.45-3.19,2.83-3.58,3.06-.99.58-.88,1.77.32,3.72l1.03,1.67-2.47,2.57c-1.36,1.42-3.96,3.66-5.79,4.99-2.64,1.92-3.75,2.42-5.42,2.43-3.03.01-11.63,2.34-13.18,3.56-.73.58-3.37,2.47-5.87,4.21l-4.54,3.16.28,2.42c.79,6.82,1.28,10.29,1.57,11.28.39,1.29-2.12,4.44-4.51,5.68-.82.42-1.46,1.05-1.41,1.4.04.34.05,1.08.02,1.63-.05.78-.2.87-.68.39-1.13-1.13-1.87-.65-3.58,2.35-2.94,5.18-5.02,7.28-8.44,8.53-2.13.78-3.95,1.96-5.91,3.86-1.56,1.51-3.26,2.74-3.77,2.74-.58,0-1.36.81-2.03,2.12-.6,1.17-2.02,3.14-3.16,4.38-1.15,1.24-2.37,3.26-2.73,4.48-.62,2.11-.84,2.3-4.72,3.98-4.22,1.82-5.73,2.1-8.05,1.47-1.25-.34-1.58-.06-4.01,3.46-2.77,4.01-3.22,5.62-1.79,6.42.7.39.17,1.01-3.07,3.52-3.24,2.51-4.07,3.46-4.76,5.46-.61,1.75-1.34,2.72-2.64,3.48-.99.58-1.92,1.47-2.07,1.97-1.3,4.28-3.87,6.13-6.94,5.02-3-1.09-3.17-1-3,1.71l.16,2.44-2.16.47c-1.42.31-2.24.79-2.41,1.43-.22.83-.59.92-2.67.64-2.4-.33-2.43-.32-5.5,2.72-2.25,2.22-3.24,3.64-3.64,5.23-.3,1.2-.86,2.44-1.24,2.75-.99.83-9.44-1.11-12.38-2.83-1.87-1.09-2.72-1.3-4.19-1.03-2.14.4-5.87,3.99-5.89,5.68,0,.59-.3,1.43-.66,1.88-.86,1.09-5.91,1.54-7.63.69-.71-.35-1.93-.8-2.72-.99-1.27-.3-1.42-.2-1.42.98,0,.73-.35,1.45-.78,1.62-1.02.39-.98,1.46.12,3.14l.89,1.36-1.54-.37c-.85-.2-1.8-.71-2.11-1.12-1.12-1.46-4.86-.41-4.86,1.36,0,.55-1.21.65-1.72.14h0Z"/>
      <path id="path50" class="cls-1" d="m430.52,523.78c-2.87-5.8-3.17-6.21-4.38-5.97-.72.14-3.61.32-6.43.4l-5.12.15-1.38-4.4c-.76-2.42-2.62-7.13-4.13-10.47-2.53-5.58-2.96-6.2-5.26-7.68-2.19-1.4-2.78-1.56-4.71-1.24-1.22.2-2.6.57-3.07.82-2.57,1.35-7.22-1.98-11.06-7.9-1.28-1.98-3.39-4.73-4.68-6.11-2.33-2.49-2.34-2.52-1.6-4.23.41-.95,1.92-2.87,3.35-4.26,2.56-2.49,2.65-2.52,5.11-2.2,2.25.3,2.55.22,3.01-.82.34-.77,1.27-1.34,2.84-1.72,2.22-.55,2.32-.65,2.19-2.28s-.07-1.7,1.36-1.41c2.53.51,5.79-1.51,7.28-4.51.69-1.39,1.91-2.91,2.71-3.36.96-.55,1.72-1.63,2.24-3.19.6-1.79,1.43-2.85,3.47-4.4,3.52-2.68,6.09-5.27,6.09-6.14,0-.38-.5-.83-1.12-.99-1.07-.28-1.08-.34-.24-1.48.48-.66,1.49-2.17,2.26-3.36,1.34-2.1,1.47-2.16,4-2.09,1.92.06,3.67-.38,6.64-1.64,4.55-1.94,5.54-2.73,5.54-4.39,0-.64,1.06-2.4,2.36-3.92,1.3-1.52,2.8-3.64,3.35-4.72.55-1.08,1.53-2.12,2.17-2.33.65-.2,2.48-1.58,4.09-3.06,1.94-1.79,3.71-2.91,5.3-3.36,1.31-.37,2.91-1.19,3.55-1.83,2.58-2.57,4.11-4.57,5.18-6.77.81-1.67,1.34-2.22,1.92-1.98,2.33.97,2.61.89,2.61-.74,0-1.27.67-2.26,3.31-4.89l3.31-3.3-.91-3.84c-.5-2.11-1.05-5.4-1.22-7.32l-.32-3.48,2.44-1.66c1.34-.91,3.82-2.71,5.51-4,2.35-1.79,4.1-2.62,7.44-3.51,3.03-.81,4.65-1.02,5.29-.67.63.34,1.37.25,2.39-.27.81-.42,1.79-.77,2.17-.77.93,0,6.36-4.38,9.86-7.96l2.8-2.86-1.27-1.91-1.27-1.91,2.99-2.86,2.99-2.86,6.15,5.9,6.15,5.9.06,3.54c.04,2.36.5,4.79,1.39,7.29,1.26,3.54,1.51,3.86,4.53,5.84,1.76,1.15,4.42,2.71,5.91,3.46s2.72,1.61,2.72,1.9-.8,2.82-1.77,5.61c-1.43,4.1-1.93,6.71-2.63,13.56-.47,4.66-1.02,8.99-1.21,9.62-.34,1.12-.4,1.1-2.93-.83l-2.59-1.97-6.63.91c-3.65.5-6.72.99-6.82,1.1-.11.11-.55,4.09-.98,8.85-.71,7.79-.71,9.31.01,15.19.48,3.9,1.58,9.17,2.73,13.06,1.87,6.33,2.12,6.81,8.29,16.04l6.36,9.52-1.11,3.81c-.61,2.09-1.32,4.37-1.58,5.06l-.48,1.26-5.8-2.63-5.8-2.63-1.01,1.25c-.56.69-1.27,1.62-1.6,2.07-.85,1.19-6.35,3.12-7.83,2.75-.78-.2-2.26.16-4,.95-2.22,1.02-3.01,1.73-4.03,3.67l-1.28,2.41h-5.21c-4.78,0-5.31.1-6.34,1.2-.62.66-1.12,1.81-1.12,2.55s-.23,1.95-.5,2.68c-.43,1.12-.83,1.33-2.57,1.33s-2.25-.27-2.95-1.34c-1.45-2.21-3.21-1.4-8.42,3.92-3.78,3.85-4.85,4.66-6.15,4.66-2.54,0-3.93.79-5.45,3.09-1.56,2.36-1.25,3.62.9,3.65,1.03.02,1.04.06.2.7-1.02.77-1.21,2.65-.32,3.2.4.25.32.51-.26.83-.46.26-.84.93-.84,1.48,0,.81.36,1.01,1.87,1.01,1.28,0,1.79.2,1.63.65-.13.36-.63,1.84-1.11,3.29s-1.43,3.17-2.12,3.82c-1.23,1.15-1.33,1.16-4.31.41-2.95-.74-3.16-.73-6.23.5-2.65,1.06-3.18,1.48-3.18,2.51,0,1.22-.08,1.24-4.8,1.24h-4.8l-3.08-6.22v.03Z"/>
      <path id="path52" class="cls-1" d="m203.87,524.15c-.31-1.01-2.07-2.9-4.56-4.91-1.1-.89-1.06-3.93.08-5.67.5-.76.95-2.09,1-2.96s.25-2.3.44-3.19c.22-1.03.06-2.16-.44-3.12-.56-1.07-.63-1.77-.26-2.43.35-.62.32-1.72-.08-3.4-.46-1.91-1.24-3.11-3.42-5.27-2.39-2.36-3-3.36-3.9-6.42-.66-2.26-1.63-4.22-2.57-5.2-.83-.87-1.5-1.86-1.5-2.2,0-1.23-2.87-5.94-4.12-6.76-.7-.46-2.07-1.71-3.04-2.78-1.81-2-2.9-2.42-3.37-1.29-.28.67-.71.28-2.4-2.2-.43-.62-1.03-1.49-1.33-1.93-.42-.59-.32-1.26.39-2.65.56-1.09.95-2.96.95-4.53,0-2.52-.1-2.72-1.68-3.45-.92-.43-2.51-.92-3.53-1.1-2.25-.4-4.37-2.54-4.8-4.86-.18-.94-1.33-3.38-2.56-5.43s-2.89-5.36-3.67-7.35c-2.35-5.96-4.74-9.92-7.78-12.88-2.82-2.75-4.95-6.53-4.94-8.76,0-.73-1.42-2.48-4.07-5-4.84-4.61-7.58-8.22-6.81-8.99.29-.29.53-.98.53-1.53,0-1.5-3-6.45-4.53-7.47-2.09-1.4-5.3-4.86-5.3-5.74,0-.43-.48-1.3-1.06-1.92-.66-.7-1.16-2.09-1.31-3.64-.17-1.73-.64-2.92-1.52-3.84-.7-.73-1.28-1.76-1.28-2.28,0-1.49-2.03-4.38-3.67-5.23-.83-.43-1.5-1.13-1.5-1.55,0-1.06-3.84-5.92-5.77-7.29-1.37-.98-1.46-1.17-.69-1.6,1.61-.9.66-2.3-2.08-3.1-1.42-.41-2.94-1.06-3.37-1.45-1.67-1.49-3.25-1.69-5.59-.68-2.75,1.18-4.75,1.26-4.75.19,0-.91-.23-.94-2.44-.3-1.34.38-1.91.28-2.92-.52-.69-.55-1.66-.99-2.16-.99-1.41,0-.74-2.9,2.59-11.32,1.96-4.95,2.8-8.66,2.52-11.12-.37-3.18-.27-4.18.75-7.31.65-1.99,1.14-4.67,1.09-5.95s.16-3.26.46-4.4.71-3.35.91-4.92.92-4.33,1.59-6.14c.68-1.81,1.23-3.74,1.23-4.29s.59-1.59,1.31-2.31c1.14-1.14,1.6-1.27,3.49-.97,1.2.19,11.39,1.95,22.65,3.92s20.97,3.58,21.58,3.58c.67,0,4.86-3.11,10.62-7.89l9.51-7.89,5.5-9.32,5.5-9.32,12.72-2.58,12.72-2.58,1.4,1.71c1.27,1.55,1.53,1.66,2.84,1.16,2.36-.9,3.47-.65,5.58,1.26,1.1,1,2.31,1.81,2.69,1.81s1.24.59,1.91,1.3c1.14,1.21,1.23,1.73,1.25,7.2l.03,5.89,5.05.36c4.41.32,5.23.24,6.47-.58,1.6-1.06,2.12-1.03,5.01.37,1.12.54,2.32.98,2.65.98.97,0,3.33,3.42,3.33,4.82,0,.84.61,1.73,1.81,2.65,1,.76,1.81,1.6,1.81,1.87,0,.9-3.71,5.67-4.4,5.67-1.04,0-1.25,1.19-.37,2.19.63.72.65,1.05.14,1.67-.72.86-.48,6.78.3,7.49.25.23,2.15.57,4.21.75l3.75.33v-1.79c0-1.19.43-2.25,1.29-3.18,1.49-1.61,1.58-2.22.53-3.6-1.09-1.43-.97-1.84.43-1.49,1.39.35,2.15-.27,4.5-3.69.87-1.26,1.7-2.29,1.86-2.29s.88.47,1.61,1.04c.73.57,2.19,1.18,3.24,1.35s2.19.47,2.51.67c.4.25.6,3,.63,8.54l.04,8.18,1.75-.28c1.47-.24,2.19.05,4.62,1.88,1.74,1.31,2.98,2.67,3.14,3.46.15.71.75,2.92,1.33,4.92.58,1.99,1.19,4.26,1.34,5.04.32,1.66.21,1.63,3.43.66l2.49-.76.81,1.93c.61,1.45.73,2.91.5,5.95-.29,3.78-.44,4.19-2.46,6.58-1.19,1.41-2.02,2.87-1.87,3.28.15.4,2.8,2.06,5.88,3.68,6.86,3.61,7.14,3.85,6.15,5.25-.52.75-2,1.32-5.04,1.97-4.95,1.06-6.63,1.64-6.63,2.3,0,.81,2.1,1.12,9.76,1.46l7.43.33,2.4,1.89c1.32,1.04,4.22,3.12,6.44,4.61,2.22,1.5,4.18,3.11,4.34,3.59.17.48.82,1.57,1.44,2.42,2.07,2.82,2.76,5.09,2.97,9.66l.2,4.49-3.4.84c-7.34,1.82-7.06,1.68-8.05,3.88-.72,1.6-.85,2.72-.58,5.05,1.04,8.83,1.05,8.57-.4,10.71-.75,1.1-1.35,2.33-1.35,2.75s-.47,1.34-1.03,2.07c-.57.72-1.03,1.77-1.03,2.31,0,1.16-.94,3.1-1.75,3.63-.31.2-1.08.03-1.72-.39-1.55-1.02-1.89-.97-3.71.56l-1.56,1.32-5.49-1.35c-4.27-1.05-6.12-1.27-8.34-.99-2.68.33-2.97.26-4.92-1.31-1.84-1.48-2.17-1.58-2.95-.93-1.1.93-4.68,2.99-5.2,2.99-.21,0-.85-.43-1.41-.95s-1.65-1.36-2.42-1.87c-1.29-.85-1.43-.85-1.73-.07-.29.76-.42.77-1.19.07-.47-.43-1.55-.73-2.39-.67-1.32.1-1.55-.09-1.69-1.31-.09-.78-.37-1.42-.63-1.42s-.34-.33-.18-.74c.49-1.28-.7-2.68-2.84-3.32-1.88-.56-5.75-4.15-5.75-5.34,0-.23-.87-.86-1.94-1.4s-2.38-1.48-2.93-2.08c-1.31-1.44-2.05-1.38-5.01.44l-2.49,1.53-.38-1.14c-.21-.63-.41-2.19-.46-3.47-.22-6.24-.88-9.23-2.36-10.64-1.22-1.17-1.73-1.33-3.29-1.04-1.02.19-2.14.66-2.49,1.04-.53.57-.9.48-2.11-.54-.8-.68-1.94-1.23-2.52-1.23-.91,0-1.01.23-.74,1.59.41,2.04-.45,5.89-1.61,7.2-.5.56-1.78,1.94-2.84,3.06-2.27,2.38-2.43,3.84-.71,6.17,1.47,1.99,2.04,4.97,1.38,7.24-.48,1.67-2.56,4.09-4.38,5.11-.55.3-1.38,1.54-1.85,2.74l-.86,2.19-1.8-1.58c-2.87-2.52-5.26-2.67-5.7-.36-.16.84-.83,1.13-3.55,1.55l-3.36.52-.12,2.33c-.07,1.28-.18,4.07-.26,6.2l-.14,3.87,2.07,1.08,2.07,1.08v3.76c0,3.16.17,3.88,1.03,4.52.99.73,1.51.72,4.4-.09,1.16-.33,1.2-.29.4.35-1.46,1.16-1.39,3.15.14,3.9.85.42,1.74,1.67,2.51,3.53.94,2.26,1.61,3.1,3.11,3.86,2.31,1.18,2.82,1.78,3.61,4.23.51,1.58.46,2.18-.31,3.8-.88,1.85-.88,1.94.06,2.64.54.39,1.64,1.3,2.44,2.02.97.86,2.07,1.31,3.25,1.31.98,0,1.93.23,2.1.52.18.28.99.52,1.82.52,1.09,0,1.86.47,2.85,1.77l1.35,1.77-1.16,1.33c-.64.73-1.55,1.33-2.04,1.33-2.23,0-3.25,3.98-1.59,6.22.61.82,1.11,1.94,1.11,2.49s.31,1.25.69,1.57c.53.44.59,1.28.26,3.56-.37,2.54-.26,3.35.69,5.43.61,1.35,1.54,2.58,2.06,2.75.87.28.89.43.17,2.14-1.1,2.63-.96,3.67.68,5.31.79.79,1.35,1.73,1.24,2.07s.2,1.55.71,2.67c.64,1.41,1.33,2.12,2.26,2.31,2.2.46,2.88,1.02,3.06,2.54.15,1.23.03,1.38-.78,1.02-1.91-.85-5.89-.89-6.8-.07-.48.43-1.51.95-2.3,1.14-1.63.41-1.93,1.97-.54,2.75.71.4.76.64.25,1.25-.49.59-1.72.73-5.41.64-2.63-.07-5.14-.28-5.59-.47-1.41-.61-3.44.58-4.65,2.74-1.41,2.5-2.38,3-2.86,1.45h0v-.03Z"/>
      <path id="path79" class="cls-1" d="m849.12,787.02c-.24-.91-.45-4.2-.45-7.31v-5.67l-97.93-.19-97.92-.19,14.15-31.4c12.87-28.57,14.06-31.54,13.15-32.93-.55-.84-3.53-4.64-6.63-8.45l-5.63-6.93.09-6.61c.12-9.18.15-8.96-1.42-9.37-1.34-.35-1.36-.55-.35-3.91,1.41-4.68,3.92-9.79,4.8-9.79.39,0,2.16-1.07,3.94-2.38s4.72-3.31,6.54-4.45,3.31-2.37,3.31-2.74c0-.61-8.84-1.12-13.02-.75-.95.08-2.92-.83-4.52-2.1-3.14-2.49-3.13-1.68-.08-10.47.81-2.33,2.13-5.16,2.93-6.29,3.77-5.3,6.42-20.96,7-41.42.23-8.05.75-16.52,1.16-18.83s.6-7.58.42-11.71c-.19-4.29.02-8.84.48-10.61.66-2.51.59-3.76-.37-6.59-.65-1.92-1.36-4.72-1.57-6.24-.21-1.51-1.02-3.65-1.81-4.76-.78-1.1-1.85-3.49-2.36-5.3-.52-1.81-1.18-3.58-1.48-3.93s-2.01-.07-3.81.61c-1.79.68-4.01,1.13-4.92,1-1.61-.24-1.65-.47-1.52-7.56.15-7.91-.88-11.84-3.59-13.74-1.25-.87-1.41-1.55-1.02-4.36.38-2.77.99-3.77,3.65-5.99l3.19-2.67-1.37-2.56c-.76-1.41-1.21-3.2-1-3.98.21-.8-.5-2.9-1.62-4.82-1.57-2.69-1.91-4.01-1.61-6.29.21-1.59.96-3.31,1.67-3.83.89-.65,1.1-1.36.7-2.32-.32-.76-.63-2.11-.69-3s-.81-2.37-1.65-3.29c-1.71-1.87-2.55-5.67-2.47-11.19.08-5.14-4.27-16.18-6.26-15.91-7.16.97-8.22.72-11.54-2.73-1.75-1.82-3.39-3.89-3.63-4.59-.42-1.19-2.05-1.65-5.03-1.41-.68.06-1.94-.88-2.79-2.08-1.51-2.12-4.38-3.01-4.38-1.35,0,.57-1.07.67-3.48.31-1.91-.29-4.63-.61-6.04-.71-2.51-.18-8.8-3-12.45-5.57-1.01-.71-2.66-1.41-3.66-1.55-1.02-.14-2.14-.98-2.54-1.9-.89-2.03-.95-2.03-4,.06l-2.49,1.71-4.76-3.72c-2.62-2.05-6.1-4.89-7.73-6.32-1.64-1.43-4.37-3.2-6.07-3.95-2.67-1.16-3.04-1.59-2.66-3.08.73-2.91-.84-3.96-5.12-3.46-7.74.91-13.38-2.52-14.16-8.6-.22-1.76-.69-3.56-1.04-4s-.45-1.76-.21-2.93c.3-1.52-.07-2.84-1.3-4.68-2.07-3.08-4.79-3.68-6.77-1.5-1.8,1.99-2.85,1.89-6.51-.62-2.48-1.71-3.33-2.9-4.34-6.1-1.37-4.33-1.65-8.61-.58-8.61.37,0,1.33.82,2.12,1.83,1.9,2.41,3.5,2.31,4.85-.29.6-1.17,3.27-9.64,5.92-18.84,4.66-16.17,4.81-16.9,4.3-22.21-1.13-11.75-1.08-12.09,2.26-15.37l3.01-2.95,27.29,2.53c18.62,1.72,27.86,2.31,29.09,1.84,2.85-1.08,7.51-.81,25.48,1.52,9.26,1.2,17.03,2.18,17.27,2.18s1.64,1.95,3.11,4.32c2.09,3.39,2.66,5.07,2.66,7.82s.55,4.34,2.74,7.74l2.74,4.24,16.19-.46,16.19-.46,1.32,2.01c1.06,1.62,1.15,2.28.46,3.39-1.13,1.8-1.09,2.13.23,2.13.72,0,1.1.72,1.1,2.06s.77,2.8,2.16,4.12c1.73,1.66,2.07,2.48,1.73,4.19-.64,3.21,1.66,7.73,4.21,8.3,1.21.26,1.92.82,1.72,1.35-.19.49.6,1.95,1.75,3.24,1.92,2.15,2.07,2.73,1.85,7.1-.16,3.15.03,4.76.57,4.76.5,0,.64.7.35,1.85-.34,1.37-.13,1.97.84,2.32.71.26,1.53.82,1.8,1.24.32.48,1.02.29,1.93-.53,1.36-1.23,1.53-1.21,4.17.58,1.72,1.17,3.76,1.87,5.46,1.87s3.17.5,4.04,1.46c1.29,1.43,1.28,1.46-.64,1.46s-5.58,1.87-5.58,2.85c0,.27.99.86,2.2,1.32,1.49.56,2.2,1.33,2.2,2.38,0,1.26.38,1.51,2.01,1.34,1.87-.2,2.03,0,2.21,2.72.4,5.81,2.78,8.11,7.53,7.31,2.47-.42,2.88-.76,2.96-2.43.07-1.63.17-1.53.59.63.28,1.42,1.31,3.54,2.29,4.72,5.53,6.63,7.01,7.82,11.59,9.4,4.93,1.7,7.11,3.69,5.29,4.83-1.07.66-.95,2.25.7,9.49.72,3.17,1.33,4.17,3.09,5.12,1.21.65,3.1,2,4.21,3.01,1.87,1.7,1.99,2.13,1.62,6.04-.27,2.89-.71,4.21-1.4,4.21-.59,0-1.01.76-1.01,1.83,0,2.59-1.09,2.27-2.51-.73-2.61-5.5-5.76-1.72-4.87,5.85.35,2.99.7,3.67,1.89,3.73,3.18.16,3.33.27,2.87,2.1-.31,1.22.14,2.86,1.36,5.06,1.21,2.17,1.69,3.92,1.43,5.26-.25,1.3,0,2.29.7,2.81.6.44,1.23,1.23,1.4,1.76s2.12,3.24,4.33,6.03c3.23,4.08,4.32,5,5.6,4.71,1.31-.3,1.75.12,2.52,2.38.51,1.51.84,3.62.74,4.68-.1,1.07.17,2.16.59,2.42.43.26.78,1.53.79,2.82.01,3.25.74,5.63,1.72,5.63.92,0,3.39,3.97,3.39,5.43,0,.51.64,1.5,1.42,2.21.78.71,1.63,2.32,1.88,3.59.88,4.41,1.17,4.94,2.43,4.54.92-.29,1.86.8,3.78,4.38,3.44,6.4,6.38,7.92,14.59,7.55,3.74-.17,5.6,0,5.29.47-.83,1.29-2.29,5.81-2.3,7.14,0,.96.59,1.28,2.4,1.28,1.33,0,2.78-.36,3.22-.8,1.92-1.92,7.08,2.19,7.84,6.24.38,2.02,3.72,6.92,12.4,18.23,6.54,8.51,15.94,20.91,20.9,27.55s9.39,12.48,9.85,12.98c.49.54,9.15,1.96,21.3,3.5,11.26,1.43,36.73,4.74,56.59,7.36,32.74,4.32,36.24,4.66,37.37,3.63.69-.62,1.44-1.13,1.66-1.13.51,0,18.86,30.98,18.86,31.85,0,.35-4.42,14.81-9.83,32.13-5.41,17.33-11.87,38.14-14.37,46.25l-4.54,14.75-32.64,11.51c-17.95,6.33-46.91,16.57-64.34,22.75-17.44,6.18-31.97,11.24-32.29,11.24s-.79-.74-1.03-1.65h0Z"/>
      <g id="g85">
        <path id="path83" class="cls-1" d="m414.82,902c-1.02-1.34-1.82-1.94-2.58-1.94-.29,0-.27-.03.17-.33.57-.38.64-.89.23-1.48-.29-.4-.93-.72-1.23-.61-.22.08-.27-.11-.07-.24.23-.14.14-.56-.14-.65-.77-.25-2.35-.02-2.6.37-.14.22.14.6.45.6.16,0,.37.06.48.12.17.11.16.14-.04.29-.21.16-.22.21-.03.81.26.85.25.93-.12,1.3s-.86.41-1.11.12c-.14-.16-.11-.31.13-.83.32-.69.28-1.04-.11-1.04-.14,0-.27-.07-.3-.15-.03-.09-.53-.15-1.4-.16-.74,0-1.46-.08-1.6-.16-.14-.08-.26-.31-.28-.55-.04-.5-.37-1.03-.75-1.17-1.14-.44-1.47-.65-2.1-1.33-.39-.42-.74-.92-.78-1.11-.2-.89-.37-1.21-.91-1.71-.55-.5-.63-.54-1.16-.48-.31.04-.57.04-.57.01s.09-.26.19-.52c.38-.92.16-1.49-.66-1.71-.3-.08-.4-.21-.55-.74-.1-.35-.27-.74-.38-.86-.36-.4.04-.24.43.18.73.78,1.61,1.39,2.29,1.59.99.29,1.61.76,1.78,1.34.07.27.22.6.33.73s.19.43.19.66.2.74.5,1.24c.29.47.45.87.38.91s-.11.22-.08.39c.06.39.58.51.71.16.13-.35.3-.43.95-.43.78,0,.98.13.76.49-.15.23-.14.31.04.49.25.25.62.15.71-.2.07-.27.4-.39,1.02-.4.83,0,.93-.56.22-1.26-.49-.48-.97-.77-2.4-1.38-.98-.42-1.71-1.01-2.03-1.63-.14-.27-.54-.88-.9-1.35-.49-.64-.65-.97-.65-1.3,0-.48.16-.62.9-.76,1.04-.2,2.2-1.4,2.2-2.27,0-.26-.12-.66-.27-.9-.21-.35-.23-.46-.1-.54.1-.06.25-.03.37.07.11.09.49.2.85.24.78.09,1.74.45,1.74.65,0,.08-.33.53-.72.99-.94,1.1-1.39,1.86-1.28,2.19.04.14.26.41.47.59.32.27.52.33,1.17.33h.78l-.09.55c-.1.61-.26.77-.68.67-.16-.04-.49,0-.74.08-.4.13-.46.2-.46.58,0,.32.1.52.4.77.59.49,1.19.43,1.89-.22.16-.14.43-.28.6-.29.17-.02.43-.09.56-.17.39-.21.62.01.31.29-.48.43-.5,1.5-.03,1.5.12,0,.44-.18.7-.4.62-.51,1.09-.64,1.65-.46.54.17.97.78,1.09,1.51.15.95.8,1.93,1.27,1.93.13,0,.34.12.46.26s.32.26.45.26.29.12.36.26.26.26.4.26c.23,0,.25.06.18.45-.08.42-.06.45.25.45.28,0,.34.06.34.36,0,.2-.1.5-.23.68-.35.49-.29,2.23.1,3.04.27.56.28.65.11.95-.14.25-.31.35-.65.37-.39.03-.51-.02-.77-.36h-.01Z"/>
        <path id="path85" class="cls-1" d="m393.39,887.57c-.52-.43-.61-.77-.33-1.2.34-.54.86-1.06,1.06-1.06.1,0,.5.3.89.67l.71.67-.39.16c-.22.09-.39.26-.39.37,0,.2-.71.71-.99.72-.08,0-.33-.15-.54-.33h-.02Z"/>
        <path id="path87" class="cls-1" d="m390.84,892.12c-.52-.2-1.35-.73-1.35-.86,0-.06-.23-.45-.52-.88-.28-.43-.55-.95-.59-1.16-.1-.49.23-1.27.56-1.36.31-.08.42-.01.72.46.13.2.37.43.55.51s.35.3.4.48c.04.18.3.75.58,1.27.54.99.63,1.51.3,1.64-.11.04-.21.07-.23.07-.01,0-.2-.08-.42-.16h0Z"/>
        <path id="path89" class="cls-1" d="m385.25,890.26c-.16-.03-.37-.21-.47-.4s-.3-.46-.45-.59c-.35-.32-.35-.66.02-.91.47-.33,1.01-.23,2.23.42.98.52,1.17.67,1.2.96.03.28-.02.36-.26.41-.49.1-1.96.18-2.27.12h0Z"/>
        <path id="path91" class="cls-1" d="m382.34,888.1c-.24-.04-.43-.16-.65-.39-.36-.39-.4-.55-.18-.96.08-.14.14-.28.14-.31,0-.08-.14-.18-.38-.27-.45-.17-.56-.66-.25-1.13.3-.45,1.1-.48,1.71-.08.3.2.43.4.43.66s-.11.44-.36.57c-.12.06-.22.14-.22.18s.07.17.18.3c.24.29.41.63.41.86,0,.41-.34.66-.81.57h-.02Z"/>
        <path id="path93" class="cls-1" d="m385.89,894.57c-.15-.16-.22-.45-.18-.84l.03-.31-.28-.3c-.15-.17-.28-.33-.28-.36,0-.09.25-.59.4-.8.18-.25.49-.43.75-.43.16,0,.22.02.32.14.24.27.16.7-.23,1.19-.1.13-.19.26-.19.28,0,.05.21.05.52,0,.29-.05.53,0,.66.16.29.34-.08.89-.84,1.28-.31.16-.51.15-.67,0h0Z"/>
        <path id="path95" class="cls-1" d="m391,899.22c-1.47-.23-2.38-.88-2.08-1.48.27-.53,1.3-.73,1.64-.33.11.13.32.21.66.25.55.06.97.32,1.21.75.22.39.16.62-.21.76-.19.07-.9.1-1.23.04h0Z"/>
        <path id="path97" class="cls-1" d="m401.77,899.03c-.06-.02-.19-.1-.28-.18-.22-.18-.54-.29-1.07-.38s-.81-.19-1.08-.38c-.2-.13-.47-.24-.61-.24-.1,0-.6-.36-1.02-.73-.55-.48-.96-.77-1.4-.98-.55-.27-.61-.48-.17-.65.44-.17,1.37-.08,2.28.22.56.19.83.36.89.59.09.33.35.62,1.25,1.4.89.77,1.06.88,1.35.93.32.05.37.1.24.27-.11.16-.22.2-.37.14h-.01Z"/>
        <path id="path99" class="cls-1" d="m409.8,905.69c-.26-.11-.56-.43-.72-.75-.13-.27-.15-.35-.15-.69s.02-.43.14-.69c.16-.33.61-.81.88-.94.19-.09.32-.06.85.18.89.41,1.08.78.74,1.48-.3.63-.77,1.22-1.08,1.39-.2.1-.46.11-.66.02h0Z"/>
        <path id="path101" class="cls-1" d="m419.29,910.83c-.68-.1-1.26-.41-1.5-.82-.18-.29-.22-.5-.15-.74.11-.42.5-.66,1.05-.66.78,0,1.44.32,1.64.79.08.19.09.74.02.97s-.26.39-.51.45c-.11.03-.23.05-.25.04-.03,0-.16-.02-.29-.04h0Z"/>
        <path id="path103" class="cls-1" d="m403.37,910.99c-1.2-.14-1.37-.24-1.37-.76,0-.47.27-.73,1.32-1.27l.47-.24.43.43c.56.56.69.78.69,1.22,0,.68-.25.78-1.53.63h-.01Z"/>
        <path id="path105" class="cls-1" d="m406.16,916.61c-.29-.1-.74-.56-.91-.93-.17-.35-.18-.64-.05-1.16.24-.95.57-1.24,1.09-.96.5.27,1.48,1.27,1.69,1.71q.11.24.03.46c-.11.28-.53.71-.85.85-.29.13-.68.15-1,.03h0Z"/>
        <path id="path107" class="cls-1" d="m416.66,916.69c-.29-.07-.68-.27-.85-.45-.57-.57-.5-1.57.16-2.07.49-.37.82-.36,1.3.04.47.39.55.38,1.28-.16.91-.67,1.56-.79,1.76-.31.17.41-.21,1.19-.92,1.91-.42.43-.61.52-1.16.58-.43.04-.83.17-.83.26,0,.14-.47.25-.75.18h0v.02Z"/>
        <path id="path109" class="cls-1" d="m423.7,918.04c-.08-.04-.3-.24-.5-.45-.46-.47-.65-.57-1.26-.62-.52-.05-.79-.15-.99-.38-.38-.43-.2-1.08.48-1.82.71-.77.81-.94.81-1.4,0-.3.01-.34.14-.5.38-.48,1.21-.58,1.52-.18.17.21.17.39.02.72-.12.26-.13.34-.13.75,0,.75.22,1.3.66,1.73.33.32.36.44.26.96-.1.53-.25.89-.45,1.09s-.34.22-.57.1h.01Z"/>
        <path id="path111" class="cls-1" d="m427.2,913.21c-.15-.03-.25-.09-.42-.27-.14-.14-.3-.25-.44-.3-.43-.15-.5-.19-.58-.37-.15-.31,0-.67.36-.91.28-.18.43-.16.67.09.27.28.51.38.96.41.51.03.71.1.94.33.16.16.19.23.19.36,0,.3-.36.53-1,.64-.39.07-.41.07-.69.02h.01Z"/>
        <path id="path113" class="cls-1" d="m423.44,923.6c-.43-.27-.87-.8-.96-1.16-.08-.29.03-.54.38-.92.15-.16.31-.39.36-.5.1-.22.18-.69.18-1,0-.71.59-1.55,1.09-1.55.36,0,.95.88,1,1.49.02.27,0,.32-.14.62-.09.18-.3.48-.47.67-.46.52-.52.68-.43,1.19.04.25.04.37,0,.55-.1.4-.41.73-.7.73-.06,0-.2-.06-.31-.13h0Z"/>
        <path id="path115" class="cls-1" d="m394.89,904.54c-.84-.09-1.03-.16-1.45-.58-.39-.38-.68-.85-.74-1.18-.07-.38.43-1,.82-1,.12,0,.43.31.58.59.35.62.45.69,1.11.74.25.02.55.07.67.12.49.19.82.54.82.85,0,.2-.1.3-.4.39-.22.07-1.07.12-1.41.08h0Z"/>
        <path id="path117" class="cls-1" d="m399.35,906c-.31-.16-.39-.4-.3-.82.03-.13.01-.17-.22-.4-.29-.29-.35-.47-.24-.73.14-.33.55-.4.77-.13.09.1.12.21.14.47.04.43.06.49.2.49.11,0,.25-.2.31-.48.05-.21.31-.44.49-.44.3,0,.54.25.54.55,0,.19-.05.28-.31.55-.11.11-.28.34-.37.5-.13.24-.21.32-.37.4-.24.12-.43.13-.64.02h0v.02Z"/>
      </g>
    </g>
  </g>
</svg>